<?xml version="1.0" encoding="UTF-8"?>
<svg xmlns="http://www.w3.org/2000/svg" xmlns:xlink="http://www.w3.org/1999/xlink" viewBox="0 0 500 500" width="500px" height="500px">
<g id="surface50248160">
<path style=" stroke:none;fill-rule:nonzero;fill:rgb(100%,100%,100%);fill-opacity:1;" d="M 177.910156 468.359375 C 185.019531 465.300781 190 458.230469 190 450 L 190 396 C 190 394.03125 190.160156 391.980469 190.410156 389.898438 C 190.269531 389.941406 190.140625 389.96875 190 390 C 190 390 160 390 154 390 C 139 390 126 384 120 372 C 113 359 110 337 92 325 C 89 323 91 320 97 320 C 103 321 116 329 124 340 C 133 351 142 360 158 360 C 182.871094 360 196.199219 358.75 204.21875 354.449219 C 213.558594 340.558594 226.488281 330 240 330 L 240 329.75 C 183.320312 327.929688 147.109375 309.089844 130.25 280 C 93.601562 280.421875 61.691406 284.050781 43.480469 287.070312 C 42.898438 283.800781 42.398438 280.511719 41.96875 277.199219 C 59.941406 274.238281 90.398438 270.730469 125.421875 270.058594 C 124.300781 267.300781 123.328125 264.46875 122.511719 261.570312 C 87.398438 259.789062 57.101562 261.179688 40.640625 262.539062 C 40.441406 259.21875 40.171875 255.910156 40.128906 252.550781 C 56.621094 251.199219 86.101562 249.851562 120.308594 251.441406 C 119.519531 246.441406 119.011719 241.328125 119.011719 236.011719 C 119.011719 219.011719 125.011719 201.011719 136.011719 186.011719 C 131.011719 169.011719 124.011719 133.011719 138.011719 120.011719 C 165.011719 120.011719 184.011719 133.011719 193.011719 141.011719 C 210 134 229 130 250 130 C 271 130 290 134 306 141 C 315 133 334 120 361 120 C 376 134 368 170 363 186 C 374 201 380 218 379 236 C 379 240.839844 378.550781 245.511719 377.898438 250.089844 C 412.890625 248.371094 443.171875 249.75 459.941406 251.109375 C 459.921875 254.480469 459.609375 257.769531 459.429688 261.101562 C 442.71875 259.71875 411.679688 258.300781 375.839844 260.210938 C 374.949219 263.570312 373.871094 266.839844 372.589844 270.011719 C 408.050781 270.46875 439.238281 273.898438 458.070312 276.898438 C 457.640625 280.21875 457.140625 283.511719 456.558594 286.769531 C 437.441406 283.710938 404.851562 280.128906 367.769531 279.949219 C 351.121094 308.730469 315.570312 327.5 260 329.691406 L 260 330 C 286 330 310 369 310 396 L 310 450 C 310 458.230469 314.980469 465.300781 322.089844 468.359375 C 413.699219 438.039062 480 351.640625 480 250 C 480 123.179688 376.828125 20 250 20 C 123.171875 20 20 123.179688 20 250 C 20 351.640625 86.300781 438.039062 177.910156 468.359375 Z M 177.910156 468.359375 "/>
</g>
</svg>
