<svg width="1158" height="1024" viewBox="0 0 1158 1024" fill="none" xmlns="http://www.w3.org/2000/svg">
<path d="M722.794 482.557V660.314C722.794 690.209 698.329 714.66 668.448 714.66H488.735C458.852 714.66 434.387 690.209 434.387 660.314V482.557C434.387 464.958 442.861 449.25 455.927 439.305C465.349 432.105 476.878 428.207 488.735 428.211H668.448C681.408 428.214 693.936 432.872 703.75 441.337C715.393 451.318 722.794 466.105 722.794 482.557Z" fill="white"/>
<path d="M662.79 719.882H494.391C458.43 719.882 429.175 690.624 429.175 654.664V488.205C429.175 452.244 458.43 422.989 494.391 422.989H662.79C698.75 422.989 728.008 452.244 728.008 488.205V654.664C728.008 690.624 698.75 719.882 662.79 719.882ZM494.391 433.424C464.19 433.424 439.61 458 439.61 488.205V654.664C439.61 684.864 464.184 709.446 494.391 709.446H662.79C692.991 709.446 717.57 684.871 717.57 654.664V488.205C717.57 458.004 692.997 433.424 662.79 433.424H494.391Z" fill="#371A45"/>
<path d="M513.2 421.105C447.15 443.784 423.867 510.479 414.125 510.681C404.383 510.883 398.095 494.192 389.619 483.151C374.365 463.299 354.026 481.3 314.311 471.47C294.716 466.621 314.904 525.473 323.565 547.76C334.837 576.781 359.44 612.405 405.18 611.449C471.797 610.056 473.811 528.126 473.811 528.126" fill="white"/>
<g opacity="0.25">
<path d="M480.492 509.97L473.817 528.126C473.817 528.126 471.797 610.047 405.175 611.442C359.446 612.398 334.832 576.772 323.56 547.762C314.897 525.477 294.715 466.621 314.306 471.477C314.741 471.583 315.175 471.694 315.61 471.783C318.185 489.803 327.332 515.776 332.459 528.964C336.535 539.469 384.521 514.511 384.841 527.428C385.191 541.922 357.38 563.89 367.635 578.117C376.519 590.465 395.155 593.028 414.061 592.65C468.475 591.568 449.068 520.843 480.492 509.97Z" fill="#371A45"/>
</g>
<path d="M403.384 616.685C350.505 616.685 326.582 569.941 318.699 549.657C316.65 544.386 309.611 525.799 305.011 507.941C298.084 481.078 301.052 473.25 304.411 469.43C305.967 467.659 309.487 464.92 315.573 466.425C332.192 470.538 345.519 469.517 356.228 468.7C370.855 467.581 383.487 466.614 393.766 479.998C396.388 483.411 398.75 487.231 401.036 490.927C405.062 497.445 409.598 504.773 413.42 505.434C415.376 503.867 419.547 497.742 423.247 492.3C437.444 471.418 463.877 432.551 511.52 416.186C512.829 415.737 514.262 415.826 515.506 416.434C516.749 417.042 517.699 418.119 518.149 419.427C518.598 420.736 518.509 422.17 517.901 423.413C517.293 424.656 516.216 425.607 514.907 426.056C470.547 441.289 446.341 476.898 431.877 498.166C423.897 509.899 419.89 515.798 414.239 515.915H413.944C404.223 515.915 398.083 506.003 392.162 496.413C390.016 492.936 387.795 489.349 385.494 486.353C378.933 477.814 372.024 477.962 357.032 479.109C345.578 479.978 331.322 481.076 313.072 476.561C312.781 476.483 312.482 476.439 312.181 476.43C311.688 477.204 309.263 482.477 315.042 505.028C319.503 522.427 326.427 540.705 328.441 545.894C337.36 568.846 359.224 607.147 405.077 606.247C430.385 605.717 448.724 592.679 459.583 567.488C467.992 547.982 468.605 528.212 468.609 528.015C468.685 525.136 471.086 522.813 473.958 522.935C475.34 522.969 476.653 523.551 477.606 524.552C478.559 525.554 479.076 526.893 479.042 528.275C479.02 529.145 478.41 550.002 469.289 571.336C456.865 600.385 434.743 616.066 405.294 616.68C404.645 616.678 404.01 616.685 403.384 616.685Z" fill="#371A45"/>
<path d="M420.968 613.296C420.261 613.294 419.568 613.1 418.962 612.735C418.356 612.37 417.861 611.847 417.528 611.223C417.196 610.599 417.039 609.896 417.074 609.19C417.11 608.484 417.336 607.8 417.729 607.212C446.191 564.994 415.465 512.626 415.152 512.102C414.657 511.215 414.526 510.17 414.788 509.189C415.049 508.207 415.683 507.366 416.554 506.843C417.425 506.32 418.465 506.157 419.454 506.387C420.444 506.618 421.305 507.224 421.855 508.078C423.243 510.39 455.475 565.197 424.214 611.582C423.855 612.111 423.371 612.544 422.805 612.843C422.239 613.142 421.608 613.297 420.968 613.296V613.296Z" fill="#371A45"/>
<path d="M318.834 484.115C287.812 479.168 287.284 453.563 300.542 442.912C308.672 436.379 335.305 432.214 338.96 446.082C342.362 459.007 321.643 460.181 321.776 466.071C321.856 469.578 324.6 473.023 335.938 474.051" fill="white"/>
<path d="M321.776 466.062C321.859 469.571 324.601 473.015 335.931 474.049L318.834 484.117C314.721 483.466 311.141 482.44 308.055 481.139C303.649 471.983 306.752 461.135 314.261 455.097C319.041 451.255 330.189 448.242 339.323 449.211C338.897 459.251 321.657 460.698 321.776 466.062Z" fill="white"/>
<g opacity="0.25">
<path d="M321.776 466.062C321.859 469.571 324.601 473.015 335.931 474.049L318.834 484.118C314.721 483.466 311.141 482.44 308.055 481.139C303.649 471.983 306.752 461.135 314.261 455.097C317.394 452.577 323.851 453.967 329.437 451.006C335.206 447.947 338.751 438.621 339.323 449.211C338.897 459.251 321.657 460.698 321.776 466.062Z" fill="#371A45"/>
</g>
<path d="M318.841 489.334C318.564 489.334 318.287 489.312 318.013 489.269C302.044 486.722 291.089 478.492 287.958 466.69C285.295 456.65 289.045 445.461 297.275 438.845C304.469 433.063 320.975 429.383 332.292 433.115C338.489 435.156 342.539 439.179 344.005 444.752C347.158 456.722 336.522 462.119 330.808 465.017C329.846 465.504 328.568 466.153 327.64 466.708C328.742 467.451 331.371 468.387 336.414 468.85C337.792 468.976 339.063 469.644 339.949 470.708C340.834 471.772 341.26 473.144 341.134 474.522C341.008 475.9 340.339 477.171 339.276 478.056C338.212 478.942 336.84 479.368 335.462 479.242C323.091 478.11 316.731 473.717 316.56 466.184C316.434 460.609 321.557 458.006 326.087 455.709C333.185 452.109 334.721 450.48 333.909 447.41C333.565 446.106 332.685 444.233 329.022 443.027C321.077 440.42 308.08 443.547 303.806 446.979C298.735 451.053 296.419 457.899 298.042 464.013C300.095 471.759 307.771 477.067 319.651 478.964C320.955 479.161 322.136 479.844 322.956 480.877C323.776 481.909 324.174 483.214 324.071 484.528C323.967 485.842 323.37 487.069 322.399 487.961C321.428 488.852 320.155 489.343 318.837 489.334H318.841Z" fill="#371A45"/>
<path d="M352.889 473.953C315.984 476.632 296.327 459.646 277.099 471.326C262.355 480.28 267.063 511.997 277.901 522.832C294.148 539.08 323.977 548.857 334.06 550.319C353.917 553.198 380.567 554.852 387.863 516.23" fill="white"/>
<path d="M353.265 479.157C347.385 479.527 341.454 479.774 335.577 479.279C329.749 478.856 323.952 478.085 318.217 476.97C312.557 475.931 307.03 474.677 301.759 473.808C296.488 472.939 291.486 472.6 287.104 473.53C285.972 473.669 284.951 474.106 283.899 474.462C282.813 474.727 281.878 475.418 280.857 475.881L280.103 476.261L279.569 476.635C279.187 476.852 278.895 477.202 278.539 477.458C277.868 478.112 277.275 478.841 276.773 479.631C274.617 482.953 273.65 487.831 273.614 492.726C273.611 497.748 274.393 502.739 275.932 507.52C276.664 509.846 277.625 512.093 278.8 514.229C279.347 515.223 279.962 516.177 280.64 517.086C281.308 517.967 282.057 518.782 282.878 519.522C290.226 526.601 299.734 532.104 309.574 536.547C314.518 538.772 319.583 540.716 324.746 542.372C327.307 543.154 329.91 543.936 332.411 544.467C333.687 544.749 334.747 544.938 336.187 545.134C337.545 545.331 338.901 545.525 340.233 545.664C345.58 546.29 350.836 546.533 355.787 545.903C360.739 545.273 365.278 543.684 369.134 541.071C371.069 539.705 372.84 538.12 374.412 536.347C375.302 535.53 375.933 534.453 376.673 533.458L377.795 531.961C378.149 531.441 378.425 530.857 378.746 530.307C381.499 525.988 383.218 520.867 385.299 515.75L385.382 515.533C385.617 514.955 386.05 514.48 386.604 514.193C387.159 513.905 387.797 513.825 388.405 513.967C389.013 514.108 389.55 514.462 389.921 514.964C390.291 515.466 390.471 516.084 390.427 516.706C390.007 522.54 389.149 528.521 386.631 534.218C386.329 534.931 386.081 535.663 385.731 536.362L384.589 538.433C383.804 539.806 383.068 541.203 381.999 542.442L380.502 544.351L379.743 545.305L378.859 546.157L377.049 547.828C376.463 548.406 375.824 548.928 375.139 549.386C369.862 553.427 363.39 555.524 357.21 556.39C350.979 557.259 344.887 556.992 339.049 556.39C337.578 556.251 336.14 556.067 334.703 555.875C333.35 555.713 331.627 555.441 330.141 555.126C327.121 554.518 324.311 553.707 321.476 552.877C315.882 551.16 310.389 549.129 305.024 546.794C294.337 542.088 283.88 536.365 274.824 527.908C273.547 526.767 272.383 525.505 271.347 524.141C270.339 522.792 269.425 521.374 268.612 519.898C267.07 517.094 265.809 514.144 264.849 511.092C262.937 505.123 261.976 498.891 262 492.624C262.015 489.383 262.384 486.153 263.102 482.992C263.865 479.757 265.025 476.457 267.039 473.369C268.055 471.783 269.257 470.324 270.62 469.024C271.365 468.407 272.056 467.72 272.881 467.203L274.092 466.386L275.215 465.793C276.736 465.052 278.165 464.135 279.821 463.655C281.433 463.09 283.041 462.488 284.716 462.239C291.406 460.833 297.857 461.556 303.642 462.578C309.472 463.623 314.919 464.968 320.329 466.034C331.099 468.285 341.76 469.293 352.513 468.746H352.678C354.059 468.668 355.415 469.142 356.447 470.063C357.479 470.985 358.102 472.278 358.18 473.659C358.259 475.041 357.785 476.396 356.863 477.428C355.942 478.46 354.648 479.084 353.267 479.162L353.265 479.157Z" fill="#371A45"/>
<path d="M352.889 473.953C315.984 476.632 296.327 459.646 277.099 471.326C262.355 480.28 267.063 511.997 277.901 522.832C294.148 539.08 323.977 548.857 334.06 550.319C353.917 553.198 380.567 554.852 387.863 516.23" fill="white"/>
<g opacity="0.25">
<path d="M387.296 518.953C379.286 554.768 353.443 553.125 334.065 550.324C323.973 548.86 294.148 539.076 277.901 522.84C270.681 515.609 266.168 499.09 268.341 486.232C269.675 495.64 273.373 504.667 278.277 509.582C295.139 526.444 326.087 536.582 336.555 538.107C353.856 540.612 376.131 542.231 387.296 518.953Z" fill="#371A45"/>
</g>
<path d="M353.265 479.157C341.502 479.972 329.565 478.916 318.285 476.628C312.636 475.542 307.128 474.238 301.831 473.345C296.534 472.452 291.478 472.041 286.985 472.995C285.827 473.139 284.775 473.584 283.697 473.947C282.587 474.223 281.622 474.922 280.58 475.4L279.815 475.787L279.248 476.183C278.844 476.4 278.533 476.78 278.161 477.052C277.454 477.735 276.83 478.5 276.304 479.331C274.057 482.794 273.082 487.763 273.045 492.728C273.028 497.812 273.819 502.866 275.389 507.702C276.138 510.061 277.12 512.34 278.32 514.505C278.882 515.519 279.513 516.493 280.208 517.42C280.9 518.316 281.678 519.141 282.531 519.884C290.024 526.95 299.636 532.308 309.537 536.634C314.501 538.816 319.582 540.72 324.757 542.337C327.323 543.1 329.932 543.858 332.433 544.371C333.709 544.642 334.762 544.818 336.205 545.005C337.563 545.205 338.917 545.405 340.246 545.55C345.587 546.202 350.832 546.463 355.781 545.852C360.739 545.277 365.267 543.68 369.147 541.088C371.096 539.733 372.877 538.154 374.455 536.382C375.351 535.565 375.976 534.487 376.73 533.494L377.853 531.993C378.208 531.474 378.484 530.887 378.807 530.337C381.562 526.009 383.272 520.875 385.299 515.748L385.38 515.53C385.611 514.947 386.044 514.467 386.6 514.176C387.156 513.886 387.797 513.804 388.408 513.946C389.019 514.088 389.558 514.444 389.929 514.95C390.299 515.456 390.476 516.078 390.427 516.704C389.955 522.529 389.086 528.497 386.57 534.185C386.271 534.898 386.021 535.63 385.673 536.327L384.532 538.396C383.75 539.769 383.011 541.166 381.956 542.404L380.465 544.316L379.711 545.27L378.829 546.124L377.028 547.799C376.446 548.381 375.809 548.905 375.127 549.366C369.871 553.431 363.394 555.545 357.217 556.436C350.984 557.326 344.883 557.087 339.036 556.503C336.045 556.244 333.071 555.816 330.128 555.221C327.108 554.589 324.303 553.759 321.472 552.909C315.892 551.155 310.416 549.085 305.07 546.708C294.444 541.883 284.088 536.017 275.174 527.545C273.93 526.413 272.792 525.168 271.776 523.828C270.783 522.5 269.884 521.105 269.086 519.652C267.57 516.876 266.332 513.957 265.392 510.937C263.514 505.018 262.567 498.842 262.585 492.632C262.598 489.433 262.962 486.244 263.672 483.124C264.419 479.939 265.56 476.698 267.526 473.68C268.515 472.133 269.686 470.71 271.013 469.441C271.739 468.841 272.41 468.176 273.214 467.666L274.392 466.87L275.495 466.288C276.992 465.56 278.396 464.652 280.023 464.181C281.609 463.624 283.189 463.031 284.836 462.784C291.415 461.408 297.796 462.088 303.569 463.053C309.383 464.052 314.845 465.345 320.27 466.379C331.071 468.552 341.78 469.469 352.52 468.75H352.565C353.946 468.656 355.308 469.114 356.35 470.024C357.393 470.934 358.031 472.221 358.125 473.601C358.219 474.982 357.761 476.344 356.851 477.386C355.941 478.429 354.654 479.067 353.274 479.161L353.265 479.157Z" fill="#371A45"/>
<path d="M389.675 488.528C389.675 488.528 393.403 444.403 368.426 437.687C346.899 431.918 341.084 439.479 340.65 444.201C339.887 452.272 357.204 457.352 357.471 460.026C357.738 462.701 344.367 477.945 356.669 487.439" fill="white"/>
<path d="M384.476 488.089C384.734 476.941 383.646 464.729 379.279 455.167C377.106 450.387 373.993 446.571 370.084 444.583C369.573 444.366 369.071 444.149 368.563 443.903L366.964 443.382C365.643 443.06 364.25 442.693 362.905 442.415C360.302 441.867 357.657 441.546 354.999 441.455C352.528 441.431 350.128 441.722 348.6 442.467C347.001 443.151 346.428 444.131 346.321 444.701C346.321 444.772 346.28 444.64 346.302 444.701C346.348 444.867 346.421 445.025 346.519 445.168C347.062 445.926 347.71 446.603 348.444 447.18C350.267 448.701 352.687 450.126 355.31 451.64L357.384 452.866C358.248 453.381 359.079 453.95 359.872 454.569C360.089 454.732 360.446 455.062 360.715 455.319C360.878 455.477 361.093 455.718 361.267 455.925L361.547 456.27C361.675 456.451 361.796 456.638 361.912 456.831C362.03 457.022 362.13 457.218 362.236 457.415C362.381 457.725 362.5 458.046 362.592 458.376C362.785 458.992 362.866 459.637 362.834 460.281C362.825 460.558 362.803 460.834 362.766 461.109L362.675 461.554C362.616 461.815 362.523 462.176 362.458 462.343C362.102 463.34 361.666 464.306 361.154 465.233C359.633 468.025 358.375 470.336 357.528 472.711C356.68 475.086 356.189 477.148 356.2 479.042C356.168 480.939 356.804 482.938 358.245 485.365L358.369 485.582C358.654 486.068 358.781 486.63 358.732 487.19C358.684 487.751 358.462 488.283 358.098 488.712C357.735 489.142 357.246 489.447 356.701 489.587C356.156 489.727 355.581 489.694 355.055 489.493C353.278 488.783 351.677 487.694 350.362 486.303C348.943 484.773 347.882 482.946 347.255 480.954C345.989 476.874 346.538 472.741 347.636 469.374C348.733 466.006 350.336 462.91 351.635 460.331C351.848 459.924 352.037 459.506 352.203 459.077C352.174 459.155 352.152 459.235 352.135 459.316L352.109 459.486C352.076 459.665 352.057 459.847 352.053 460.029C352.05 460.214 352.061 460.398 352.085 460.581C352.105 460.85 352.152 461.117 352.226 461.376C352.298 461.613 352.387 461.844 352.494 462.067C352.544 462.185 352.602 462.3 352.668 462.41C352.733 462.521 352.805 462.627 352.885 462.728L352.978 462.86C353.03 462.926 353.087 462.987 353.148 463.045C353.13 463.045 353.222 463.108 353.128 463.045C352.933 462.901 352.383 462.552 351.825 462.236L349.943 461.2C347.279 459.744 344.368 458.213 341.426 455.944C339.746 454.673 338.279 453.142 337.081 451.41C336.325 450.294 335.748 449.068 335.368 447.775C334.948 446.315 334.829 444.785 335.016 443.278C335.358 440.662 336.45 438.201 338.16 436.192C339.683 434.398 341.584 432.963 343.727 431.99C347.718 430.111 351.536 429.818 355.101 429.752C358.516 429.839 361.916 430.232 365.26 430.926C366.888 431.26 368.435 431.66 370.062 432.058L372.806 432.962L375.448 434.146C378.844 435.9 381.847 438.328 384.274 441.281C386.547 444.049 388.425 447.121 389.853 450.406C392.663 456.744 393.934 463.262 394.674 469.665C395.029 472.876 395.213 476.077 395.27 479.27C395.309 482.51 395.18 485.75 394.885 488.976C394.765 490.323 394.127 491.572 393.104 492.457C392.081 493.342 390.754 493.795 389.403 493.721C388.052 493.646 386.784 493.049 385.865 492.056C384.946 491.064 384.448 489.753 384.478 488.4L384.476 488.089Z" fill="#371A45"/>
<path d="M328.006 477.367C327.516 477.577 327.073 477.882 326.702 478.264C326.096 478.881 325.556 479.559 325.09 480.287C324.038 481.891 323.135 483.866 322.357 485.91C320.803 490.038 319.73 494.549 318.993 499.114C318.249 503.707 317.857 508.351 317.822 513.004C317.796 517.647 318.113 522.32 319.141 526.713V526.753C319.329 527.418 319.244 528.131 318.906 528.735C318.568 529.338 318.004 529.783 317.338 529.97C316.672 530.158 315.959 530.073 315.355 529.735C314.752 529.397 314.308 528.833 314.12 528.167C312.499 523.259 311.73 518.262 311.295 513.267C310.882 508.264 310.853 503.238 311.209 498.231C311.565 493.206 312.262 488.176 313.659 483.099C314.379 480.559 315.239 478.006 316.595 475.418C317.31 474.039 318.167 472.737 319.15 471.533C320.351 470.073 321.824 468.859 323.486 467.959L324.054 467.662C325.289 467.011 326.732 466.878 328.066 467.291C329.4 467.705 330.514 468.631 331.165 469.867C331.815 471.102 331.949 472.546 331.535 473.879C331.121 475.213 330.195 476.328 328.96 476.978C328.655 477.138 328.335 477.268 328.006 477.367V477.367Z" fill="#371A45"/>
<path d="M282.242 480.469C285.318 480.15 288.303 480 291.367 479.959C294.436 479.915 297.506 480.042 300.562 480.339C303.653 480.658 306.778 481.167 309.946 482.19C311.599 482.715 313.192 483.413 314.699 484.271C316.413 485.241 317.921 486.534 319.14 488.08L319.319 488.313C319.956 489.139 320.238 490.184 320.105 491.218C319.971 492.253 319.432 493.192 318.606 493.829C317.78 494.466 316.735 494.749 315.7 494.615C314.666 494.482 313.727 493.942 313.09 493.116C312.967 492.957 312.857 492.788 312.759 492.612C311.934 491.113 309.859 489.649 307.497 488.591C305.135 487.533 302.415 486.731 299.651 486.14C296.843 485.549 294.004 485.114 291.147 484.836C288.277 484.556 285.327 484.384 282.483 484.365H282.422C281.903 484.39 281.396 484.208 281.011 483.859C280.627 483.51 280.397 483.023 280.372 482.504C280.347 481.985 280.529 481.478 280.878 481.094C281.227 480.709 281.714 480.479 282.233 480.454L282.242 480.469Z" fill="#371A45"/>
<path d="M280.534 499.131C283.54 498.89 286.56 498.846 289.572 498.999C292.595 499.144 295.606 499.481 298.587 500.007C301.637 500.574 304.634 501.399 307.545 502.473C310.565 503.644 313.429 505.186 316.07 507.062C316.505 507.37 316.871 507.764 317.148 508.219C317.425 508.674 317.606 509.181 317.681 509.708C317.756 510.236 317.722 510.773 317.582 511.287C317.443 511.801 317.2 512.281 316.868 512.698C316.537 513.115 316.124 513.46 315.655 513.712C315.185 513.965 314.67 514.119 314.139 514.165C313.608 514.211 313.074 514.149 312.568 513.982C312.062 513.815 311.596 513.546 311.197 513.193L311.106 513.113C309.177 511.402 307.048 509.931 304.766 508.732C302.339 507.517 299.815 506.508 297.22 505.715C291.856 504.141 286.316 503.242 280.729 503.04H280.642C280.386 503.047 280.13 503.004 279.89 502.912C279.65 502.82 279.43 502.682 279.244 502.506C279.057 502.329 278.907 502.118 278.802 501.883C278.697 501.649 278.64 501.396 278.633 501.139C278.625 500.882 278.669 500.626 278.761 500.386C278.852 500.146 278.99 499.927 279.167 499.74C279.343 499.554 279.555 499.404 279.79 499.299C280.024 499.194 280.277 499.136 280.534 499.129V499.131Z" fill="#371A45"/>
<path d="M644.869 421.105C710.919 443.784 734.202 510.479 743.944 510.681C753.687 510.883 759.981 494.192 768.455 483.151C783.709 463.299 804.048 481.3 843.762 471.47C863.36 466.621 843.169 525.473 834.511 547.76C823.237 576.772 798.633 612.396 752.902 611.44C686.276 610.047 684.262 528.123 684.262 528.123" fill="white"/>
<g opacity="0.25">
<path d="M677.577 509.971L684.254 528.134C684.254 528.134 686.274 610.056 752.894 611.451C798.623 612.407 823.237 576.781 834.509 547.771C843.172 525.486 863.354 466.63 843.763 471.486C843.328 471.592 842.894 471.703 842.459 471.792C839.884 489.812 830.737 515.785 825.61 528.973C821.534 539.478 773.547 514.52 773.228 527.437C772.885 541.922 800.689 563.89 790.434 578.117C781.547 590.465 762.912 593.029 744.005 592.651C689.586 591.569 709.007 520.843 677.577 509.971Z" fill="#371A45"/>
</g>
<path d="M754.684 616.685C754.054 616.685 753.428 616.685 752.79 616.665C723.345 616.05 701.216 600.37 688.795 571.321C679.67 549.989 679.063 529.138 679.042 528.26C679.025 527.575 679.143 526.894 679.39 526.255C679.636 525.616 680.006 525.032 680.478 524.535C680.951 524.039 681.516 523.641 682.142 523.363C682.769 523.086 683.443 522.934 684.128 522.917C684.813 522.901 685.494 523.019 686.133 523.265C686.772 523.512 687.357 523.882 687.853 524.354C688.349 524.826 688.747 525.392 689.025 526.018C689.302 526.644 689.454 527.319 689.471 528.004C689.471 528.197 690.088 547.967 698.498 567.473C709.362 592.663 727.695 605.713 753.005 606.232C798.87 607.21 820.719 568.831 829.638 545.879C831.654 540.69 838.579 522.413 843.037 505.012C848.817 482.462 846.392 477.189 845.901 476.415C845.599 476.427 845.299 476.471 845.006 476.546C826.755 481.06 812.502 479.972 801.05 479.094C786.047 477.947 779.145 477.791 772.587 486.338C770.286 489.334 768.066 492.926 765.919 496.398C759.99 505.986 753.859 515.9 744.138 515.9H743.84C738.191 515.782 734.185 509.89 726.202 498.151C711.741 476.878 687.528 441.274 643.175 426.041C642.527 425.819 641.929 425.471 641.415 425.017C640.902 424.563 640.482 424.013 640.181 423.397C639.881 422.782 639.704 422.113 639.661 421.429C639.619 420.745 639.712 420.059 639.934 419.411C640.157 418.763 640.505 418.165 640.958 417.652C641.412 417.138 641.962 416.719 642.578 416.418C643.821 415.81 645.255 415.721 646.564 416.171C694.212 432.533 720.636 471.401 734.832 492.285C738.526 497.716 742.7 503.852 744.664 505.419C748.481 504.767 753.016 497.423 757.048 490.911C759.332 487.218 761.693 483.396 764.316 479.983C774.595 466.603 787.225 467.57 801.854 468.685C812.563 469.504 825.89 470.523 842.509 466.41C848.593 464.902 852.115 467.646 853.67 469.415C857.029 473.234 859.997 481.063 853.071 507.926C848.465 525.794 841.423 544.382 839.383 549.642C831.489 569.941 807.564 616.68 754.684 616.685Z" fill="#371A45"/>
<path d="M737.101 613.295C736.46 613.296 735.829 613.139 735.262 612.838C734.696 612.537 734.213 612.102 733.855 611.57C702.594 565.185 734.826 510.379 736.214 508.067C736.76 507.203 737.622 506.587 738.616 506.35C739.61 506.114 740.657 506.276 741.533 506.802C742.41 507.327 743.045 508.175 743.304 509.164C743.563 510.152 743.425 511.203 742.919 512.091C742.604 512.614 711.889 564.983 740.34 607.201C740.736 607.789 740.965 608.473 741.001 609.181C741.038 609.889 740.882 610.594 740.549 611.22C740.216 611.846 739.72 612.37 739.112 612.735C738.505 613.101 737.81 613.294 737.101 613.295V613.295Z" fill="#371A45"/>
<path d="M839.235 484.115C870.257 479.168 870.784 453.563 857.527 442.912C849.396 436.379 822.763 432.214 819.109 446.082C815.706 459.007 836.428 460.181 836.293 466.071C836.212 469.578 833.468 473.023 822.131 474.051" fill="white"/>
<path d="M836.293 466.062C836.21 469.571 833.468 473.015 822.138 474.049L839.237 484.117C843.348 483.466 846.928 482.44 850.013 481.139C854.42 471.983 851.317 461.135 843.808 455.097C839.028 451.255 827.88 448.242 818.746 449.211C819.172 459.251 836.412 460.698 836.293 466.062Z" fill="white"/>
<g opacity="0.25">
<path d="M836.293 466.062C836.211 469.571 833.469 473.015 822.138 474.049L839.237 484.118C843.348 483.466 846.929 482.44 850.014 481.139C854.42 471.983 851.318 461.135 843.809 455.097C840.676 452.577 834.218 453.967 828.632 451.006C822.864 447.947 819.32 438.621 818.747 449.211C819.172 459.251 836.413 460.698 836.293 466.062Z" fill="#371A45"/>
</g>
<path d="M839.228 489.334C837.91 489.343 836.637 488.852 835.666 487.961C834.695 487.069 834.097 485.842 833.994 484.528C833.891 483.214 834.289 481.909 835.109 480.877C835.929 479.844 837.11 479.161 838.413 478.964C850.294 477.067 857.968 471.759 860.025 464.013C861.646 457.899 859.33 451.053 854.259 446.979C849.985 443.547 836.984 440.409 829.043 443.027C825.379 444.233 824.5 446.106 824.156 447.41C823.348 450.48 824.884 452.109 831.978 455.709C836.504 458.006 841.631 460.609 841.505 466.184C841.334 473.717 834.974 478.11 822.603 479.242C821.225 479.368 819.853 478.942 818.789 478.056C817.726 477.171 817.057 475.9 816.931 474.522C816.805 473.144 817.231 471.772 818.116 470.708C819.002 469.645 820.273 468.976 821.651 468.85C826.694 468.387 829.323 467.451 830.427 466.708C829.497 466.154 828.219 465.504 827.257 465.017C821.545 462.119 810.907 456.722 814.06 444.752C815.526 439.179 819.578 435.156 825.773 433.115C837.092 429.385 853.596 433.063 860.792 438.845C869.027 445.461 872.77 456.661 870.107 466.69C866.976 478.492 856.021 486.722 840.052 489.269C839.779 489.312 839.504 489.334 839.228 489.334V489.334Z" fill="#371A45"/>
<path d="M805.173 473.953C842.077 476.628 861.733 459.646 880.962 471.327C895.705 480.28 890.997 511.997 880.16 522.833C863.914 539.08 834.083 548.857 824 550.319C804.144 553.198 777.493 554.852 770.197 516.23" fill="white"/>
<path d="M805.558 468.75C816.311 469.291 826.972 468.289 837.742 466.038C843.152 464.952 848.606 463.627 854.429 462.582C860.215 461.56 866.665 460.843 873.355 462.243C875.03 462.493 876.638 463.094 878.25 463.659C879.906 464.139 881.333 465.056 882.856 465.797L883.98 466.39L885.19 467.207C886.016 467.731 886.711 468.411 887.452 469.028C888.815 470.328 890.017 471.787 891.032 473.373C893.046 476.461 894.209 479.761 894.969 482.996C895.687 486.157 896.056 489.387 896.071 492.628C896.095 498.895 895.134 505.127 893.222 511.096C892.262 514.148 891.001 517.098 889.459 519.902C888.647 521.378 887.733 522.796 886.724 524.145C885.689 525.509 884.524 526.771 883.248 527.913C874.185 536.371 863.728 542.092 853.047 546.798C847.682 549.134 842.189 551.165 836.595 552.881C833.76 553.711 830.946 554.522 827.931 555.13C826.453 555.445 824.73 555.717 823.368 555.88C821.936 556.071 820.5 556.255 819.022 556.394C813.184 556.996 807.092 557.264 800.861 556.394C794.682 555.525 788.211 553.431 782.934 549.39C782.249 548.933 781.609 548.411 781.024 547.832L779.212 546.161L778.328 545.309L777.572 544.355L776.073 542.446C775.012 541.207 774.267 539.81 773.483 538.437L772.34 536.366C771.99 535.667 771.742 534.935 771.44 534.222C768.922 528.525 768.064 522.544 767.645 516.71C767.601 516.088 767.78 515.471 768.15 514.969C768.52 514.468 769.057 514.114 769.664 513.973C770.271 513.831 770.909 513.91 771.463 514.196C772.017 514.482 772.451 514.956 772.687 515.532L772.772 515.75C774.854 520.869 776.572 525.99 779.327 530.307C779.649 530.857 779.923 531.441 780.277 531.96L781.398 533.457C782.137 534.452 782.771 535.53 783.662 536.347C785.232 538.12 787.002 539.705 788.937 541.07C792.796 543.678 797.324 545.301 802.286 545.902C807.249 546.504 812.498 546.289 817.838 545.663C819.17 545.524 820.526 545.331 821.884 545.133C823.324 544.938 824.385 544.749 825.66 544.466C828.161 543.936 830.764 543.163 833.325 542.372C838.488 540.716 843.553 538.771 848.497 536.547C858.337 532.104 867.845 526.6 875.193 519.522C876.016 518.786 876.768 517.974 877.438 517.097C878.116 516.188 878.731 515.233 879.278 514.24C880.454 512.104 881.415 509.856 882.146 507.53C883.686 502.75 884.468 497.759 884.464 492.736C884.427 487.841 883.46 482.959 881.305 479.642C880.803 478.851 880.21 478.122 879.539 477.469C879.182 477.213 878.887 476.858 878.509 476.645L877.974 476.272L877.22 475.892C876.204 475.429 875.265 474.738 874.179 474.473C873.129 474.116 872.106 473.68 870.974 473.541C866.592 472.611 861.601 472.971 856.319 473.819C851.037 474.666 845.512 475.933 839.852 476.971C834.117 478.087 828.32 478.858 822.492 479.281C816.615 479.776 810.684 479.529 804.804 479.159C803.423 479.081 802.129 478.458 801.208 477.427C800.286 476.395 799.812 475.039 799.89 473.658C799.967 472.277 800.591 470.983 801.622 470.061C802.654 469.14 804.01 468.666 805.391 468.743L805.558 468.75Z" fill="#371A45"/>
<path d="M805.173 473.953C842.077 476.628 861.733 459.646 880.962 471.327C895.705 480.28 890.997 511.997 880.16 522.833C863.914 539.08 834.083 548.857 824 550.319C804.144 553.198 777.493 554.852 770.197 516.23" fill="white"/>
<g opacity="0.25">
<path d="M770.773 518.952C778.784 554.767 804.626 553.125 824.005 550.324C834.097 548.86 863.921 539.076 880.169 522.839C887.389 515.609 891.901 499.089 889.729 486.231C888.393 495.639 884.695 504.667 879.791 509.581C862.929 526.444 831.991 536.582 821.513 538.107C804.213 540.612 781.939 542.231 770.773 518.952Z" fill="#371A45"/>
</g>
<path d="M805.558 468.75C816.298 469.469 827.007 468.563 837.81 466.379C843.242 465.345 848.697 464.052 854.509 463.053C860.282 462.088 866.663 461.408 873.242 462.784C874.891 463.031 876.469 463.624 878.055 464.181C879.682 464.652 881.086 465.56 882.583 466.288L883.686 466.87L884.864 467.666C885.668 468.176 886.339 468.841 887.065 469.441C888.392 470.71 889.563 472.133 890.554 473.68C892.51 476.698 893.659 479.939 894.406 483.124C895.116 486.244 895.48 489.433 895.493 492.632C895.513 498.839 894.569 505.011 892.694 510.928C891.755 513.949 890.518 516.868 889.001 519.643C888.205 521.099 887.308 522.497 886.317 523.828C885.297 525.172 884.155 526.42 882.906 527.556C873.998 536.03 863.639 541.896 853.01 546.719C847.665 549.095 842.189 551.166 836.608 552.92C833.784 553.77 830.972 554.6 827.952 555.232C825.009 555.827 822.035 556.255 819.044 556.514C813.197 557.094 807.094 557.337 800.863 556.447C794.682 555.556 788.209 553.442 782.953 549.377C782.271 548.916 781.635 548.392 781.052 547.81L779.251 546.135L778.369 545.281L777.615 544.327L776.125 542.415C775.069 541.177 774.33 539.78 773.548 538.407L772.407 536.338C772.06 535.641 771.81 534.909 771.51 534.196C768.994 528.508 768.125 522.539 767.653 516.714C767.603 516.089 767.78 515.466 768.15 514.96C768.52 514.453 769.06 514.097 769.671 513.954C770.282 513.812 770.924 513.894 771.48 514.184C772.036 514.475 772.469 514.956 772.7 515.539L772.781 515.756C774.808 520.884 776.518 526.018 779.275 530.346C779.597 530.896 779.873 531.482 780.227 532.001L781.35 533.503C782.093 534.496 782.732 535.573 783.627 536.39C785.204 538.163 786.985 539.742 788.933 541.096C792.813 543.684 797.341 545.285 802.301 545.861C807.249 546.472 812.496 546.204 817.834 545.559C819.166 545.414 820.517 545.214 821.875 545.014C823.318 544.827 824.372 544.651 825.649 544.379C828.148 543.869 830.757 543.108 833.323 542.346C838.499 540.729 843.581 538.825 848.545 536.642C858.444 532.317 868.058 526.959 875.55 519.893C876.403 519.15 877.181 518.325 877.872 517.429C878.568 516.502 879.2 515.527 879.762 514.513C880.961 512.348 881.942 510.07 882.691 507.711C884.269 502.877 885.068 497.823 885.059 492.739C885.014 487.774 884.038 482.805 881.8 479.342C881.274 478.512 880.651 477.747 879.945 477.063C879.567 476.789 879.256 476.411 878.859 476.193L878.292 475.798L877.52 475.411C876.475 474.933 875.51 474.234 874.402 473.958C873.316 473.595 872.271 473.15 871.115 473.006C866.62 472.046 861.555 472.454 856.267 473.356C850.978 474.258 845.458 475.557 839.813 476.639C828.53 478.927 816.593 479.983 804.833 479.168C804.149 479.121 803.482 478.939 802.868 478.634C802.255 478.329 801.708 477.906 801.258 477.389C800.808 476.873 800.464 476.272 800.246 475.623C800.028 474.973 799.94 474.287 799.987 473.604C800.035 472.92 800.216 472.253 800.521 471.639C800.826 471.026 801.249 470.479 801.766 470.029C802.283 469.579 802.883 469.235 803.533 469.017C804.182 468.799 804.868 468.711 805.552 468.759L805.558 468.75Z" fill="#371A45"/>
<path d="M768.394 488.528C768.394 488.528 764.666 444.403 789.643 437.687C811.17 431.908 816.985 439.467 817.43 444.19C818.193 452.262 800.876 457.341 800.609 460.016C800.342 462.691 813.713 477.934 801.411 487.429" fill="white"/>
<path d="M763.195 488.969C762.901 485.743 762.773 482.503 762.811 479.264C762.867 476.07 763.052 472.869 763.406 469.658C764.147 463.255 765.418 456.737 768.227 450.399C769.656 447.114 771.534 444.042 773.809 441.274C776.234 438.321 779.237 435.893 782.632 434.139L785.274 432.955L788.007 432.066C789.635 431.668 791.182 431.269 792.809 430.934C796.154 430.24 799.554 429.848 802.969 429.761C806.534 429.819 810.356 430.119 814.343 431.999C816.486 432.97 818.387 434.406 819.909 436.201C821.62 438.209 822.713 440.67 823.055 443.286C823.242 444.793 823.122 446.323 822.701 447.783C822.322 449.076 821.746 450.302 820.991 451.418C819.789 453.151 818.318 454.682 816.635 455.953C813.693 458.221 810.782 459.753 808.118 461.208L806.238 462.245C805.68 462.56 805.128 462.91 804.935 463.053C804.841 463.112 804.935 463.053 804.918 463.053C804.977 462.995 805.033 462.933 805.085 462.868L805.178 462.736C805.258 462.636 805.331 462.529 805.396 462.419C805.461 462.308 805.519 462.193 805.569 462.075C805.676 461.852 805.766 461.621 805.837 461.384C805.912 461.125 805.959 460.859 805.978 460.589C806.002 460.406 806.013 460.222 806.01 460.037C806.007 459.855 805.988 459.673 805.956 459.494L805.928 459.325C805.911 459.243 805.889 459.164 805.86 459.086C806.026 459.514 806.215 459.933 806.428 460.339C807.731 462.918 809.335 465.988 810.427 469.382C811.52 472.776 812.074 476.882 810.808 480.963C810.182 482.954 809.121 484.782 807.701 486.312C806.386 487.703 804.785 488.791 803.008 489.501C802.482 489.703 801.906 489.737 801.36 489.597C800.815 489.458 800.326 489.152 799.961 488.723C799.597 488.293 799.375 487.761 799.326 487.2C799.277 486.639 799.403 486.077 799.688 485.59L799.82 485.373C801.259 482.946 801.895 480.947 801.865 479.051C801.865 477.156 801.383 475.066 800.535 472.719C799.688 470.373 798.43 468.033 796.909 465.241C796.397 464.315 795.961 463.348 795.605 462.351C795.544 462.184 795.451 461.823 795.388 461.563L795.299 461.117C795.262 460.843 795.238 460.566 795.229 460.289C795.197 459.645 795.278 459 795.471 458.384C795.564 458.055 795.683 457.734 795.827 457.424C795.927 457.226 796.044 457.03 796.151 456.839C796.257 456.648 796.387 456.459 796.516 456.279L796.796 455.933C796.97 455.716 797.185 455.485 797.348 455.327C797.617 455.071 797.974 454.74 798.191 454.577C798.984 453.959 799.815 453.39 800.679 452.874L802.754 451.649C805.378 450.128 807.799 448.7 809.619 447.188C810.353 446.611 811.001 445.934 811.544 445.176C811.64 445.033 811.714 444.875 811.762 444.709C811.783 444.639 811.733 444.772 811.74 444.709C811.629 444.14 811.06 443.16 809.461 442.475C807.94 441.73 805.532 441.439 803.062 441.463C800.404 441.554 797.758 441.876 795.156 442.423C793.811 442.701 792.418 443.075 791.097 443.39L789.498 443.912C788.998 444.148 788.496 444.374 787.977 444.592C784.066 446.58 780.946 450.397 778.782 455.175C774.415 464.735 773.326 476.95 773.585 488.098V488.385C773.612 489.734 773.115 491.042 772.198 492.032C771.281 493.023 770.016 493.619 768.668 493.696C767.321 493.773 765.996 493.324 764.972 492.444C763.949 491.564 763.306 490.322 763.18 488.978L763.195 488.969Z" fill="#371A45"/>
<path d="M834.581 467.959C836.247 468.858 837.723 470.072 838.927 471.533C839.91 472.737 840.766 474.038 841.482 475.418C842.838 478.006 843.698 480.559 844.417 483.098C845.814 488.176 846.512 493.206 846.868 498.231C847.224 503.238 847.195 508.264 846.781 513.266C846.347 518.264 845.58 523.261 843.957 528.167C843.77 528.833 843.327 529.398 842.725 529.737C842.122 530.077 841.409 530.163 840.743 529.977C840.077 529.791 839.512 529.347 839.173 528.745C838.833 528.142 838.747 527.429 838.933 526.763L838.944 526.713C839.972 522.32 840.289 517.647 840.263 513.004C840.228 508.35 839.837 503.707 839.092 499.113C838.358 494.551 837.282 490.034 835.729 485.91C834.951 483.865 834.047 481.89 832.995 480.287C832.53 479.559 831.989 478.881 831.383 478.264C831.012 477.882 830.569 477.577 830.08 477.367C828.741 476.97 827.615 476.057 826.949 474.83C826.283 473.603 826.132 472.161 826.529 470.823C826.926 469.484 827.839 468.358 829.066 467.692C830.293 467.026 831.735 466.875 833.073 467.273C833.395 467.368 833.707 467.493 834.006 467.646L834.581 467.959Z" fill="#371A45"/>
<path d="M875.586 484.376C872.74 484.396 869.79 484.567 866.919 484.848C864.063 485.125 861.224 485.56 858.415 486.151C855.652 486.742 852.951 487.522 850.57 488.602C848.189 489.682 846.133 491.124 845.308 492.624C845.058 493.076 844.723 493.475 844.319 493.798C843.916 494.121 843.453 494.361 842.957 494.505C842.461 494.649 841.941 494.693 841.428 494.636C840.915 494.579 840.417 494.422 839.965 494.173C839.512 493.924 839.113 493.588 838.791 493.185C838.468 492.781 838.228 492.318 838.084 491.822C837.94 491.326 837.895 490.807 837.952 490.293C838.009 489.78 838.167 489.283 838.416 488.83C838.51 488.66 838.616 488.496 838.733 488.341L838.926 488.091C840.149 486.545 841.661 485.251 843.378 484.283C844.886 483.424 846.48 482.726 848.134 482.201C851.3 481.178 854.424 480.68 857.516 480.35C860.571 480.053 863.641 479.926 866.711 479.97C869.766 480.011 872.753 480.161 875.836 480.48C876.355 480.504 876.843 480.733 877.192 481.117C877.542 481.501 877.725 482.007 877.701 482.526C877.678 483.045 877.449 483.532 877.065 483.882C876.681 484.232 876.174 484.415 875.656 484.391L875.586 484.376Z" fill="#371A45"/>
<path d="M877.34 503.039C871.753 503.241 866.213 504.14 860.849 505.714C858.254 506.508 855.73 507.517 853.303 508.732C851.021 509.931 848.892 511.402 846.963 513.112L846.876 513.19C846.098 513.882 845.078 514.236 844.039 514.175C843 514.113 842.027 513.642 841.336 512.864C840.645 512.086 840.29 511.065 840.352 510.026C840.413 508.987 840.884 508.015 841.662 507.324C841.768 507.229 841.879 507.141 841.994 507.059C844.636 505.182 847.501 503.641 850.522 502.47C853.432 501.396 856.428 500.571 859.478 500.004C862.459 499.477 865.471 499.141 868.495 498.996C871.507 498.843 874.525 498.887 877.531 499.128C877.788 499.135 878.041 499.193 878.275 499.298C878.51 499.403 878.721 499.553 878.898 499.739C879.074 499.926 879.212 500.146 879.304 500.386C879.396 500.626 879.439 500.881 879.432 501.138C879.425 501.395 879.367 501.648 879.263 501.882C879.158 502.117 879.008 502.328 878.821 502.505C878.634 502.681 878.415 502.819 878.175 502.911C877.935 503.003 877.679 503.046 877.422 503.039H877.34Z" fill="#371A45"/>
<path d="M685.414 517.117C714.015 616.844 700.099 706.665 700.099 706.665H457.081C457.081 706.665 443.158 616.303 472.02 516.23C472.02 516.23 474.814 398.904 577.859 398.904C680.903 398.904 685.414 517.117 685.414 517.117Z" fill="white"/>
<path d="M687.922 516.393C694.44 531.226 698.394 546.965 701.31 562.809C702.757 570.739 704.054 578.7 705.13 586.689C706.159 594.684 707.052 602.699 707.687 610.736C709.007 626.809 709.502 642.938 709.169 659.061C709.03 667.124 708.606 675.181 707.998 683.23C707.357 691.315 706.603 699.243 705.256 707.458L704.591 711.878H576.301V701.449H580.879V711.878H452.586L451.934 707.454C450.587 699.198 449.839 691.235 449.201 683.12C448.592 675.031 448.182 666.935 448.049 658.835C447.726 642.636 448.24 626.431 449.587 610.284C450.239 602.21 451.128 594.156 452.195 586.128C453.261 578.1 454.585 570.104 456.058 562.139C459.021 546.224 463.08 530.442 469.528 515.513C469.783 514.929 470.24 514.457 470.816 514.185C471.392 513.912 472.047 513.858 472.66 514.032C473.273 514.206 473.802 514.597 474.148 515.131C474.495 515.666 474.636 516.308 474.545 516.938V516.958C472.181 532.836 469.057 548.332 466.467 563.975C463.935 579.619 462.108 595.351 460.985 611.171C460.451 619.075 460.008 626.986 459.769 634.905C459.53 642.825 459.473 650.744 459.551 658.666C459.662 666.583 459.871 674.501 460.29 682.4C460.742 690.259 461.346 698.261 462.246 705.881L457.088 701.457H580.886V711.886H576.301V701.457H700.1L694.942 705.877C695.837 698.302 696.443 690.331 696.897 682.511C697.332 674.65 697.529 666.77 697.647 658.89C697.764 651.009 697.647 643.125 697.443 635.244C697.238 627.364 696.771 619.49 696.248 611.625C695.122 595.896 693.317 580.238 690.831 564.651C688.25 549.081 685.095 533.688 682.903 517.847V517.829C682.816 517.2 682.959 516.56 683.307 516.028C683.654 515.496 684.183 515.108 684.794 514.935C685.405 514.762 686.059 514.816 686.634 515.086C687.208 515.357 687.666 515.827 687.922 516.408V516.393Z" fill="#371A45"/>
<g opacity="0.35">
<path d="M577.864 639.859C578.927 641.486 579.957 643.084 580.953 644.654C579.95 643.085 578.918 641.478 577.864 639.859Z" fill="#371A45"/>
</g>
<path d="M517.962 640.754C502.236 647.12 477.9 645.788 461.307 643.78C458.945 643.493 456.665 642.735 454.601 641.552C452.536 640.369 450.73 638.785 449.288 636.892C447.846 635 446.798 632.838 446.205 630.533C445.613 628.229 445.487 625.83 445.837 623.477V623.477C446.479 619.107 448.721 615.131 452.128 612.321C455.535 609.511 459.865 608.066 464.277 608.268C479.796 608.995 503.075 609.337 517.816 606.064" fill="white"/>
<g opacity="0.35">
<path d="M517.967 640.752C502.236 647.127 477.898 645.784 461.309 643.794C458.45 643.44 455.718 642.398 453.349 640.759C450.979 639.12 449.041 636.931 447.701 634.381C446.361 631.83 445.659 628.993 445.653 626.111C445.648 623.23 446.34 620.39 447.671 617.834C449.007 620.395 450.948 622.592 453.324 624.234C455.7 625.877 458.441 626.915 461.309 627.26C477.872 629.269 502.167 630.599 517.897 624.266L517.967 640.752Z" fill="#371A45"/>
</g>
<path d="M486.677 650.666C477.535 650.666 468.455 649.914 460.681 648.971C454.769 648.243 449.37 645.254 445.613 640.632C441.857 636.009 440.036 630.112 440.533 624.177C441.029 618.242 443.805 612.729 448.276 608.795C452.748 604.861 458.57 602.811 464.52 603.075C487.292 604.144 505.817 603.403 516.687 600.991C519.17 600.439 525.314 600.37 528.795 611.561C532.187 622.468 531.711 640.83 519.922 645.601C510.555 649.382 498.564 650.666 486.677 650.666ZM463.429 613.486C460.2 613.461 457.084 614.677 454.725 616.882C452.366 619.088 450.944 622.114 450.751 625.338C450.559 628.562 451.612 631.736 453.693 634.206C455.773 636.676 458.723 638.253 461.932 638.612C485.487 641.462 504.689 640.51 516.004 635.928C518.546 634.901 519.52 630.677 519.82 628.908C521.002 621.956 519.146 614.056 517.517 611.481C502.455 614.503 480.25 614.262 464.031 613.499C463.829 613.48 463.625 613.476 463.429 613.476V613.486Z" fill="#371A45"/>
<path d="M694.903 643.78C687.118 644.723 677.617 645.519 668.105 645.427C667.453 645.427 666.801 645.427 666.149 645.399C665.497 645.371 664.77 645.369 664.085 645.338C663.618 645.338 663.162 645.31 662.714 645.288L661.096 645.199C660.411 645.16 659.727 645.11 659.051 645.06H659.001C658.325 645.01 657.641 644.951 656.965 644.882C656.531 644.843 656.072 644.793 655.636 644.743C655.258 644.712 654.879 644.665 654.512 644.623C653.928 644.554 653.341 644.476 652.774 644.395C652.207 644.315 651.688 644.237 651.164 644.148C651.057 644.141 650.951 644.124 650.847 644.098C650.221 644.009 649.606 643.9 649 643.78C648.394 643.661 647.779 643.563 647.184 643.422L647.034 643.394C646.697 643.313 646.36 643.244 646.032 643.163C645.664 643.085 645.297 642.996 644.931 642.896C643.81 642.618 642.706 642.301 641.635 641.964C641.059 641.784 640.483 641.586 639.916 641.386C639.349 641.186 638.795 640.971 638.258 640.752L638.328 624.102L638.408 606.069C642.18 606.914 646.519 607.509 651.136 607.927C664.559 609.148 680.396 608.809 691.944 608.274C692.222 608.263 692.5 608.255 692.787 608.255C697.326 608.261 701.691 609.999 704.993 613.114C708.295 616.229 710.284 620.486 710.555 625.017C710.826 629.548 709.358 634.012 706.451 637.498C703.545 640.984 699.417 643.23 694.911 643.778L694.903 643.78Z" fill="white"/>
<g opacity="0.25">
<path d="M694.903 643.78C687.12 644.723 677.619 645.518 668.107 645.427C667.455 645.427 666.803 645.427 666.151 645.399C665.465 645.388 664.769 645.369 664.085 645.338C663.618 645.338 663.162 645.308 662.714 645.288L661.098 645.199C660.411 645.16 659.727 645.11 659.051 645.06H659.001C658.327 645.01 657.641 644.951 656.967 644.882C656.52 644.843 656.072 644.793 655.635 644.743C655.259 644.712 654.881 644.662 654.514 644.623C653.928 644.554 653.343 644.476 652.776 644.395C652.209 644.315 651.69 644.237 651.168 644.148C651.061 644.141 650.955 644.125 650.851 644.098C650.225 644.008 649.608 643.9 649.004 643.78C648.4 643.661 647.783 643.563 647.186 643.422L647.038 643.394C646.701 643.313 646.362 643.244 646.034 643.163C645.666 643.085 645.299 642.996 644.933 642.896C643.809 642.618 642.708 642.301 641.634 641.962C641.059 641.784 640.483 641.586 639.918 641.386C639.353 641.186 638.797 640.971 638.26 640.752L638.33 624.102V622.901C638.836 623.118 639.373 623.318 639.909 623.505C640.446 623.692 641.05 623.902 641.626 624.08C642.699 624.419 643.798 624.732 644.924 625.015C645.292 625.115 645.659 625.204 646.025 625.282C646.354 625.362 646.693 625.432 647.029 625.499L647.177 625.53C647.775 625.66 648.379 625.777 648.996 625.888C649.613 625.999 650.217 626.105 650.842 626.205C650.946 626.232 651.052 626.249 651.16 626.255C651.685 626.344 652.222 626.423 652.767 626.503C653.313 626.583 653.919 626.662 654.506 626.72C654.873 626.759 655.251 626.809 655.627 626.84C656.061 626.89 656.511 626.94 656.959 626.979C657.632 627.048 658.319 627.107 658.992 627.157H659.042C659.718 627.207 660.402 627.257 661.089 627.296L662.705 627.385C663.153 627.405 663.609 627.426 664.076 627.435C664.761 627.466 665.456 627.485 666.143 627.496C666.794 627.516 667.446 627.524 668.098 627.524C677.61 627.613 687.111 626.82 694.894 625.877C697.634 625.549 700.26 624.587 702.563 623.067C704.866 621.546 706.782 619.51 708.16 617.119C709.634 619.671 710.453 622.549 710.544 625.495C710.635 628.441 709.995 631.363 708.681 634.001C707.367 636.64 705.42 638.911 703.014 640.614C700.609 642.317 697.819 643.397 694.894 643.759L694.903 643.78Z" fill="#371A45"/>
</g>
<path d="M669.532 650.666C657.645 650.666 645.654 649.393 636.29 645.601C624.501 640.821 624.025 622.469 627.417 611.562C630.893 600.37 637.042 600.442 639.525 600.991C650.389 603.401 668.919 604.144 691.692 603.075C697.65 602.796 703.485 604.838 707.969 608.773C712.453 612.708 715.236 618.228 715.734 624.173C716.231 630.117 714.404 636.023 710.636 640.648C706.868 645.273 701.453 648.257 695.531 648.971C687.757 649.901 678.675 650.666 669.532 650.666ZM640.201 635.928C651.516 640.511 670.716 641.464 694.271 638.612C697.559 638.28 700.585 636.67 702.697 634.129C704.81 631.587 705.839 628.317 705.564 625.024C705.289 621.731 703.731 618.677 701.226 616.522C698.721 614.366 695.469 613.281 692.172 613.5C675.95 614.26 653.748 614.503 638.689 611.481C637.061 614.056 635.212 621.958 636.385 628.908C636.685 630.675 637.659 634.901 640.201 635.928V635.928Z" fill="#371A45"/>
<path d="M644.326 594.61V650.188C644.311 655.156 642.33 659.917 638.817 663.431C635.303 666.944 630.542 668.925 625.574 668.94H523.22C512.921 668.94 504.48 660.499 504.48 650.188V594.61C504.48 584.298 512.921 575.873 523.22 575.873H625.574C630.541 575.883 635.302 577.861 638.816 581.372C642.33 584.883 644.311 589.642 644.326 594.61V594.61Z" fill="white"/>
<g opacity="0.25">
<path d="M644.327 594.61V650.19C644.327 660.495 635.888 668.934 625.572 668.934H523.218C518.254 668.92 513.497 666.941 509.986 663.431C506.476 659.92 504.497 655.163 504.483 650.199V629.4C515.449 650.718 552.704 659.103 583.352 655.998C590.2 655.305 595.084 648.8 593.464 642.114C592.962 640.052 592.71 637.936 592.714 635.813C592.714 623.69 600.753 613.869 610.654 613.869C620.236 613.869 628.079 623.064 628.585 634.64C640.868 618.586 641.532 597.1 640.5 583.31C642.979 586.556 644.323 590.526 644.327 594.61Z" fill="#371A45"/>
</g>
<path d="M622.384 674.157H526.416C519.215 674.15 512.312 671.286 507.22 666.195C502.129 661.103 499.265 654.199 499.257 646.999V597.809C499.265 590.608 502.129 583.704 507.22 578.613C512.312 573.521 519.215 570.657 526.416 570.65H622.384C629.585 570.657 636.488 573.521 641.58 578.613C646.672 583.704 649.536 590.608 649.543 597.809V647.001C649.535 654.201 646.671 661.104 641.579 666.195C636.488 671.286 629.585 674.15 622.384 674.157V674.157ZM526.416 581.09C521.981 581.09 517.727 582.851 514.59 585.986C511.453 589.121 509.689 593.374 509.686 597.809V647.001C509.686 651.438 511.449 655.693 514.586 658.831C517.724 661.968 521.979 663.731 526.416 663.731H622.384C626.821 663.731 631.077 661.968 634.214 658.831C637.351 655.693 639.114 651.438 639.114 647.001V597.809C639.111 593.374 637.347 589.121 634.21 585.986C631.073 582.851 626.819 581.09 622.384 581.09H526.416Z" fill="#371A45"/>
<path d="M610.663 638.568C619.589 638.568 626.825 631.331 626.825 622.405C626.825 613.478 619.589 606.242 610.663 606.242C601.736 606.242 594.5 613.478 594.5 622.405C594.5 631.331 601.736 638.568 610.663 638.568Z" fill="#22A7F0"/>
<path d="M626.828 622.42C626.828 623.283 626.756 624.145 626.61 624.995C625.999 621.204 624.057 617.754 621.133 615.264C618.209 612.775 614.494 611.407 610.654 611.407C606.814 611.407 603.099 612.775 600.175 615.264C597.251 617.754 595.31 621.204 594.698 624.995C594.553 624.145 594.48 623.283 594.481 622.42C594.456 620.282 594.856 618.159 595.657 616.176C596.458 614.193 597.645 612.389 599.149 610.868C600.652 609.346 602.443 608.139 604.416 607.315C606.39 606.49 608.508 606.066 610.647 606.066C612.785 606.066 614.903 606.49 616.877 607.315C618.85 608.139 620.641 609.346 622.144 610.868C623.648 612.389 624.835 614.193 625.636 616.176C626.437 618.159 626.837 620.282 626.813 622.42H626.828Z" fill="white"/>
<path d="M626.821 622.401C626.821 626.687 625.118 630.798 622.088 633.828C619.057 636.859 614.947 638.562 610.661 638.562C606.375 638.562 602.264 636.859 599.233 633.828C596.203 630.798 594.5 626.687 594.5 622.401C594.496 620.399 594.872 618.414 595.608 616.552C596.787 619.586 598.855 622.192 601.541 624.03C604.227 625.868 607.406 626.851 610.661 626.851C613.915 626.851 617.094 625.868 619.78 624.03C622.466 622.192 624.534 619.586 625.713 616.552C626.449 618.414 626.825 620.399 626.821 622.401V622.401Z" fill="#2577EF"/>
<path d="M610.663 642.482C606.691 642.482 602.809 641.305 599.507 639.099C596.205 636.893 593.631 633.757 592.111 630.088C590.591 626.419 590.194 622.382 590.968 618.487C591.743 614.592 593.655 611.014 596.463 608.206C599.271 605.398 602.849 603.486 606.744 602.711C610.639 601.937 614.676 602.335 618.345 603.854C622.014 605.374 625.15 607.948 627.356 611.25C629.562 614.552 630.739 618.435 630.738 622.406C630.733 627.728 628.616 632.831 624.852 636.595C621.088 640.359 615.985 642.476 610.663 642.482ZM610.663 610.156C608.24 610.156 605.872 610.875 603.857 612.221C601.843 613.567 600.273 615.48 599.345 617.718C598.418 619.956 598.176 622.419 598.648 624.796C599.121 627.172 600.288 629.354 602.001 631.068C603.714 632.781 605.897 633.947 608.273 634.42C610.649 634.893 613.112 634.65 615.35 633.723C617.589 632.796 619.502 631.226 620.848 629.211C622.194 627.197 622.912 624.829 622.912 622.406C622.909 619.158 621.617 616.044 619.321 613.748C617.024 611.451 613.91 610.16 610.663 610.156V610.156Z" fill="#371A45"/>
<path d="M564.858 674.157C563.475 674.157 562.149 673.608 561.171 672.63C560.193 671.652 559.644 670.326 559.644 668.943V642.119C559.636 638.949 558.896 635.825 557.481 632.989C556.066 630.153 554.015 627.683 551.487 625.771C547.671 622.884 544.575 619.153 542.438 614.872C540.302 610.59 539.184 605.872 539.172 601.087V575.871C539.172 574.488 539.722 573.161 540.7 572.184C541.678 571.206 543.004 570.656 544.387 570.656C545.77 570.656 547.096 571.206 548.074 572.184C549.052 573.161 549.601 574.488 549.601 575.871V601.087C549.609 604.256 550.349 607.381 551.764 610.216C553.179 613.052 555.23 615.522 557.758 617.434C561.576 620.32 564.676 624.05 566.815 628.332C568.954 632.614 570.074 637.332 570.088 642.119V668.941C570.088 669.627 569.953 670.306 569.69 670.94C569.427 671.574 569.042 672.15 568.556 672.635C568.07 673.119 567.493 673.503 566.859 673.764C566.224 674.026 565.544 674.159 564.858 674.157V674.157Z" fill="#371A45"/>
<g opacity="0.25">
<path d="M703.75 441.337C671.159 482.301 622.615 506.631 569.87 502.778C523.974 499.426 483.718 475.366 455.927 439.305C465.349 432.105 476.878 428.207 488.735 428.211H668.448C681.408 428.214 693.936 432.872 703.75 441.337V441.337Z" fill="#371A45"/>
</g>
<path d="M744.714 370.551C743.796 370.48 742.943 370.048 742.343 369.349C741.743 368.651 741.445 367.743 741.514 366.824L749.005 267.004C749.075 266.085 749.506 265.231 750.205 264.63C750.904 264.029 751.812 263.73 752.731 263.799V263.799C762.373 264.524 771.333 269.048 777.639 276.378C783.945 283.708 787.081 293.242 786.358 302.884L783.799 336.928C783.074 346.569 778.549 355.528 771.219 361.833C763.89 368.139 754.356 371.274 744.714 370.551V370.551Z" fill="white"/>
<path d="M747.502 371.593C746.553 371.593 745.601 371.556 744.645 371.484C744.067 371.441 743.503 371.285 742.985 371.024C742.468 370.763 742.007 370.402 741.629 369.963C741.251 369.524 740.964 369.014 740.783 368.463C740.602 367.913 740.531 367.332 740.575 366.754L748.067 266.934C748.11 266.356 748.266 265.792 748.527 265.274C748.788 264.757 749.148 264.296 749.588 263.918C750.027 263.54 750.537 263.253 751.087 263.072C751.638 262.891 752.219 262.82 752.797 262.864C757.694 263.232 762.47 264.56 766.854 266.774C771.238 268.987 775.142 272.042 778.345 275.765C781.548 279.487 783.986 283.804 785.521 288.469C787.055 293.134 787.656 298.056 787.288 302.953L784.733 336.992C784.027 346.389 779.8 355.173 772.897 361.588C765.995 368.003 756.925 371.576 747.502 371.593ZM752.462 264.726C751.822 264.728 751.207 264.97 750.739 265.406C750.27 265.841 749.983 266.437 749.935 267.075L742.444 366.895C742.419 367.228 742.459 367.562 742.563 367.879C742.667 368.195 742.833 368.489 743.051 368.741C743.268 368.994 743.533 369.201 743.831 369.351C744.129 369.501 744.453 369.591 744.786 369.615C754.18 370.32 763.469 367.264 770.61 361.12C777.751 354.976 782.159 346.247 782.865 336.853L785.42 302.816C785.769 298.164 785.198 293.489 783.741 289.058C782.283 284.626 779.967 280.526 776.925 276.989C773.882 273.453 770.173 270.551 766.009 268.448C761.845 266.346 757.307 265.084 752.655 264.735L752.462 264.726Z" fill="#371A45"/>
<g opacity="0.25">
<path d="M784.996 320.961L783.803 336.928C783.076 346.571 778.55 355.53 771.22 361.837C763.889 368.143 754.355 371.281 744.712 370.559C744.256 370.524 743.812 370.4 743.405 370.193C742.998 369.986 742.636 369.701 742.339 369.354C742.042 369.008 741.816 368.606 741.674 368.172C741.533 367.737 741.478 367.28 741.513 366.824L743.495 340.289C743.721 340.919 744.124 341.471 744.656 341.878C745.188 342.284 745.826 342.529 746.493 342.581L748.861 342.751C756.401 343.318 763.93 341.525 770.405 337.621C776.88 333.717 781.979 327.894 784.996 320.961V320.961Z" fill="#371A45"/>
</g>
<path d="M747.508 375.873C746.449 375.873 745.388 375.833 744.325 375.753C743.187 375.669 742.076 375.36 741.057 374.846C740.037 374.331 739.129 373.621 738.385 372.756C737.64 371.89 737.073 370.887 736.716 369.802C736.36 368.718 736.22 367.573 736.306 366.435L743.797 266.614C743.882 265.476 744.191 264.365 744.705 263.345C745.22 262.326 745.93 261.418 746.796 260.673C747.661 259.928 748.665 259.361 749.75 259.005C750.835 258.648 751.979 258.509 753.118 258.595C764.14 259.423 774.382 264.595 781.591 272.974C788.8 281.353 792.385 292.252 791.558 303.274L789.002 337.312C788.216 347.786 783.505 357.576 775.811 364.726C768.117 371.875 758.007 375.856 747.504 375.873H747.508ZM746.846 365.429C754.828 365.582 762.567 362.673 768.471 357.299C774.376 351.925 777.999 344.494 778.595 336.532L781.15 302.492C781.748 294.531 779.274 286.643 774.238 280.448C769.202 274.253 761.985 270.221 754.07 269.18L746.846 365.429Z" fill="#371A45"/>
<path d="M423.241 239.07C424.16 239.139 425.014 239.57 425.615 240.269C426.216 240.968 426.515 241.877 426.446 242.796L418.954 342.616C418.885 343.535 418.453 344.389 417.755 344.99C417.056 345.591 416.147 345.89 415.228 345.821C410.453 345.463 405.795 344.167 401.52 342.009C397.246 339.85 393.439 336.871 390.316 333.24C387.193 329.61 384.816 325.4 383.321 320.851C381.826 316.302 381.241 311.502 381.601 306.727L384.156 272.69C384.882 263.049 389.407 254.091 396.737 247.787C404.066 241.482 413.6 238.346 423.241 239.07V239.07Z" fill="white"/>
<path d="M415.498 346.769C415.385 346.769 415.272 346.764 415.159 346.756C410.262 346.388 405.485 345.06 401.101 342.847C396.717 340.633 392.812 337.578 389.609 333.856C386.407 330.133 383.968 325.816 382.434 321.151C380.9 316.486 380.299 311.564 380.667 306.667L383.222 272.627C383.965 262.737 388.606 253.547 396.124 247.079C403.643 240.61 413.423 237.393 423.313 238.136C424.479 238.225 425.562 238.773 426.325 239.659C427.087 240.546 427.467 241.699 427.38 242.866L419.889 342.688C419.806 343.797 419.308 344.833 418.493 345.59C417.679 346.346 416.609 346.767 415.498 346.769V346.769ZM420.458 239.904C411.507 239.919 402.891 243.312 396.334 249.406C389.777 255.499 385.761 263.843 385.091 272.769L382.536 306.808C381.831 316.203 384.887 325.492 391.032 332.633C397.176 339.774 405.906 344.182 415.3 344.887C415.97 344.935 416.633 344.717 417.145 344.281C417.397 344.063 417.603 343.797 417.752 343.498C417.902 343.2 417.99 342.875 418.014 342.543L425.505 242.722C425.554 242.051 425.336 241.388 424.897 240.878C424.459 240.368 423.836 240.052 423.165 240V240C422.261 239.935 421.359 239.903 420.458 239.904V239.904Z" fill="#371A45"/>
<g opacity="0.25">
<path d="M421.04 314.925L418.959 342.616C418.925 343.071 418.801 343.516 418.595 343.924C418.389 344.332 418.104 344.695 417.758 344.993C417.411 345.291 417.009 345.518 416.575 345.66C416.14 345.802 415.682 345.858 415.226 345.823C410.452 345.465 405.796 344.17 401.522 342.013C397.248 339.855 393.442 336.877 390.32 333.247C387.198 329.618 384.821 325.41 383.326 320.862C381.831 316.314 381.246 311.516 381.606 306.742L382.692 292.402C385.099 298.982 389.351 304.729 394.938 308.956C400.526 313.183 407.212 315.712 414.199 316.239L417.84 316.504C418.466 316.551 419.093 316.429 419.656 316.151C420.219 315.873 420.697 315.45 421.04 314.925Z" fill="#371A45"/>
</g>
<path d="M415.504 351.05C415.287 351.05 415.07 351.05 414.837 351.024C409.38 350.615 404.056 349.135 399.17 346.668C394.285 344.201 389.933 340.796 386.364 336.647C382.794 332.499 380.077 327.687 378.367 322.488C376.657 317.289 375.988 311.805 376.398 306.347L378.953 272.307C380.674 249.39 400.726 232.147 423.632 233.866C425.93 234.041 428.065 235.121 429.568 236.868C431.071 238.616 431.82 240.888 431.65 243.187L424.158 343.011C423.994 345.195 423.011 347.236 421.407 348.727C419.802 350.217 417.694 351.047 415.504 351.05V351.05ZM420.465 244.184C412.593 244.197 405.017 247.18 399.25 252.537C393.483 257.895 389.951 265.232 389.36 273.081L386.805 307.127C386.208 315.088 388.682 322.976 393.718 329.171C398.754 335.367 405.97 339.399 413.886 340.441L421.11 244.19L420.465 244.184Z" fill="#371A45"/>
<path d="M583.999 475.392C678.209 475.392 754.58 399.02 754.58 304.811C754.58 210.602 678.209 134.23 583.999 134.23C489.79 134.23 413.418 210.602 413.418 304.811C413.418 399.02 489.79 475.392 583.999 475.392Z" fill="white"/>
<path d="M584.36 476.365C575.893 476.362 567.437 475.741 559.061 474.507C513.734 467.848 473.715 443.933 446.372 407.173C419.028 370.413 407.641 325.195 414.305 279.875C420.968 234.554 444.877 194.527 481.637 167.185C518.397 139.844 563.61 128.459 608.935 135.116C654.26 141.773 694.283 165.691 721.624 202.45C748.966 239.21 760.355 284.42 753.696 329.758C747.036 375.095 723.121 415.106 686.359 442.447C656.456 464.682 620.959 476.365 584.36 476.365ZM583.888 135.153C501.165 135.153 428.54 195.922 416.156 280.148C409.568 324.98 420.831 369.694 447.877 406.054C474.923 442.414 514.503 466.064 559.337 472.652C567.538 473.859 575.816 474.467 584.106 474.47C666.831 474.47 739.454 413.702 751.838 329.475C765.437 236.918 701.214 150.571 608.657 136.974C600.456 135.765 592.178 135.157 583.888 135.153V135.153Z" fill="#371A45"/>
<g opacity="0.25">
<path d="M754.582 306.012C754.529 313.912 753.924 321.799 752.77 329.614C739.06 422.823 652.402 487.274 559.195 473.586C465.989 459.898 401.536 373.212 415.224 280.003C415.615 277.322 416.071 274.649 416.588 272.027C415.893 355.852 477.091 429.463 562.376 441.999C652.9 455.303 737.235 394.889 754.582 306.012Z" fill="#371A45"/>
</g>
<path d="M584.112 480.626C575.52 480.624 566.94 479.995 558.44 478.742C511.981 471.916 470.963 447.405 442.937 409.729C414.911 372.052 403.239 325.713 410.068 279.254C424.16 183.349 513.654 116.799 609.557 130.88C705.46 144.961 772.023 234.466 757.931 330.371C745.105 417.648 669.832 480.626 584.112 480.626ZM583.891 139.43C503.255 139.43 432.454 198.662 420.393 280.764C413.97 324.465 424.956 368.05 451.31 403.493C477.665 438.936 516.257 461.991 559.945 468.411C567.941 469.589 576.013 470.18 584.095 470.182C664.733 470.182 735.532 410.95 747.593 328.848C760.846 238.635 698.242 154.456 608.029 141.2C600.037 140.023 591.969 139.432 583.891 139.43V139.43Z" fill="#371A45"/>
<path d="M751.591 333.866C747.245 366.963 732.451 396.275 710.744 419.28C694.462 436.527 633.45 462.434 563.446 453.862C498.538 445.917 444.097 403.593 432.829 382.722C417.801 354.883 411.102 322.755 415.448 289.648C426.963 202.068 506.988 175.661 599.817 187.872C692.645 200.082 763.11 246.289 751.591 333.866Z" fill="#060000"/>
<path d="M590.704 457.847C581.495 457.855 572.294 457.302 563.152 456.192C497.536 448.153 442.085 404.818 430.756 383.841C414.941 354.538 408.84 321.863 413.118 289.346C418.672 247.126 439.869 216.806 476.127 199.233C507.963 183.807 550.846 179.068 600.131 185.545C649.417 192.022 689.618 207.689 716.371 230.831C746.836 257.19 759.471 291.953 753.915 334.173C749.637 366.694 735.295 396.679 712.44 420.89C696.48 437.796 646.912 457.847 590.704 457.847ZM558.802 187.411C527.515 187.411 500.098 192.815 478.163 203.45C443.419 220.291 423.106 249.396 417.781 289.954C413.633 321.489 419.552 353.18 434.895 381.607C445.822 401.844 499.698 443.697 563.737 451.536C634.656 460.227 694.279 433.311 709.045 417.67C731.217 394.181 745.131 365.091 749.279 333.56L751.606 333.867L749.279 333.56C754.615 293.003 742.515 259.634 713.314 234.381C687.241 211.841 647.903 196.563 599.523 190.199C585.353 188.335 571.745 187.411 558.802 187.411Z" fill="#371A45"/>
<g opacity="0.5">
<path d="M719.335 321.432C724.42 305.554 719.216 289.695 707.71 286.01C696.205 282.325 682.756 292.209 677.67 308.087C672.585 323.964 677.789 339.823 689.294 343.508C700.8 347.193 714.249 337.309 719.335 321.432Z" fill="white"/>
</g>
<g opacity="0.5">
<path d="M674.892 375.76C678.211 368.865 676.106 360.967 670.188 358.118C664.271 355.269 656.783 358.548 653.464 365.443C650.144 372.337 652.25 380.236 658.167 383.085C664.084 385.934 671.572 382.654 674.892 375.76Z" fill="white"/>
</g>
<g opacity="0.35">
<path d="M729.649 247.865C747.617 270.172 756.212 298.686 751.593 333.862C747.248 366.963 732.449 396.273 710.746 419.28C694.451 436.527 633.444 462.432 563.437 453.869C538.721 450.849 515.529 442.839 495.649 432.914C581.925 441.604 656.285 409.74 676.476 388.349C704.041 359.15 722.805 321.943 728.323 279.947C729.761 269.317 730.205 258.577 729.649 247.865V247.865Z" fill="#111A28"/>
</g>
<path d="M743.801 258.356L743.384 257.909L743.076 257.346C719.895 213.751 667.955 183.666 600.575 174.799C532.826 165.893 474.825 182.266 441.464 219.732L441.01 220.167C440.096 220.956 438.914 221.363 437.709 221.303C436.503 221.243 435.367 220.721 434.537 219.845C433.707 218.969 433.246 217.806 433.251 216.599C433.256 215.392 433.726 214.234 434.563 213.364C470.039 173.632 530.979 156.183 601.809 165.502C672.235 174.768 726.739 206.64 751.371 252.946L747.243 255.171L743.801 258.356ZM437.77 216.454L437.926 216.634L437.77 216.454Z" fill="#371A45"/>
<g opacity="0.5">
<path d="M446.337 346.705C446.337 346.705 430.578 256.755 481.669 228.445C532.76 200.134 599.732 209.092 597.6 213.182C597.6 213.182 521.076 221.379 484.346 276.19C456.021 318.46 446.337 346.705 446.337 346.705Z" fill="white"/>
</g>
<path d="M576.186 766.254C576.186 766.254 473.478 777.891 427.825 738.66C365.454 685.068 418.935 617.908 465.268 635.8C505.606 651.376 522.192 663.624 593.844 675.367C653.884 685.207 705.453 746.849 662.373 782.621C631.957 807.893 576.186 766.254 576.186 766.254Z" fill="white"/>
<g opacity="0.25">
<path d="M662.369 782.633C631.951 807.893 576.186 766.262 576.186 766.262C576.186 766.262 473.479 777.897 427.821 738.669C409.845 723.216 401.49 706.636 399.826 691.304C403.143 695.11 406.737 698.666 410.579 701.941C456.238 741.176 558.942 729.535 558.942 729.535C558.942 729.535 614.711 771.179 645.126 745.919C657.017 736.04 661.706 724.192 660.972 712.001C680.963 734.58 686.442 762.644 662.369 782.633Z" fill="#371A45"/>
</g>
<path d="M638.058 796C611.095 796 582.085 776.83 574.746 771.666C559.537 773.147 468.216 780.27 424.425 742.641C388.404 711.69 389.523 677.34 402.581 655.515C416.519 632.222 443.673 621.893 467.147 630.964C476.105 634.423 483.842 637.699 491.327 640.858C517.137 651.772 539.426 661.195 594.687 670.251C634.94 676.847 673.167 706.661 681.714 738.124C686.755 756.67 681.062 773.91 665.708 786.668C657.543 793.427 647.937 796 638.058 796ZM577.657 760.841L579.313 762.075C579.839 762.466 632.153 800.956 659.051 778.618C671.257 768.483 675.616 755.418 671.652 740.842C664.092 713.009 629.548 686.524 593.001 680.53C536.511 671.272 513.697 661.627 487.264 650.451C479.853 647.32 472.192 644.08 463.388 640.674C444.666 633.441 422.859 641.932 411.537 660.854C400.66 679.035 400.121 707.982 431.226 734.708C474.649 772.018 574.594 761.182 575.597 761.067L577.657 760.841Z" fill="#371A45"/>
<path d="M480.251 765.891C479.379 765.89 478.533 765.599 477.846 765.062C477.159 764.526 476.672 763.775 476.46 762.93C476.248 762.085 476.325 761.193 476.678 760.396C477.031 759.599 477.64 758.943 478.408 758.532C520.893 735.884 508.885 656.539 508.759 655.739C508.623 654.727 508.889 653.702 509.5 652.884C510.11 652.065 511.017 651.518 512.025 651.358C513.034 651.199 514.065 651.441 514.898 652.032C515.731 652.623 516.3 653.516 516.483 654.521C517.032 657.997 529.434 740.194 482.087 765.43C481.522 765.733 480.891 765.891 480.251 765.891V765.891Z" fill="#371A45"/>
<path d="M588.679 766.254C588.679 766.254 691.385 777.891 737.038 738.66C799.409 685.068 745.928 617.908 699.596 635.8C659.259 651.376 642.671 663.624 571.022 675.367C510.981 685.207 459.41 746.849 502.49 782.621C532.908 807.893 588.679 766.254 588.679 766.254Z" fill="white"/>
<g opacity="0.25">
<path d="M737.036 738.675C691.389 777.897 588.684 766.268 588.684 766.268C588.684 766.268 532.904 807.899 502.488 782.64C487.714 770.364 484.068 755.046 488.107 739.82C490.306 747.255 492.453 758.688 500.211 764.702C523.831 783.035 549.953 774.913 566.329 760.398C578.757 749.376 576.727 740.348 584.706 735.861C593.653 730.832 606.35 749.432 634.293 750.888C686.857 753.623 722.722 738.049 739.628 720.77C754.341 705.739 761.355 688.333 764.205 674.491C768.323 693.902 761.841 717.367 737.036 738.675Z" fill="#371A45"/>
</g>
<path d="M526.805 796C516.924 796 507.323 793.427 499.158 786.657C483.797 773.899 478.111 756.659 483.149 738.113C491.696 706.65 529.925 676.843 570.177 670.24C625.439 661.184 647.727 651.761 673.536 640.847C681.021 637.684 688.76 634.412 697.716 630.953C721.181 621.891 748.34 632.217 762.282 655.504C775.34 677.331 776.459 711.682 740.438 742.63C696.647 780.259 605.32 773.137 590.118 771.655C582.78 776.828 553.768 796 526.805 796ZM715.28 638.118C710.56 638.113 705.879 638.981 701.475 640.68C692.673 644.08 685.01 647.32 677.599 650.457C651.177 661.629 628.355 671.278 571.865 680.536C535.324 686.515 500.778 713.009 493.222 740.833C489.261 755.41 493.619 768.474 505.823 778.61C532.715 800.943 585.031 762.458 585.561 762.067L587.215 760.835L589.268 761.065C590.272 761.18 690.255 771.983 733.64 734.706C764.744 707.982 764.205 679.033 753.329 660.851C744.718 646.473 730.048 638.118 715.28 638.118Z" fill="#371A45"/>
<path d="M684.613 765.891C683.973 765.891 683.343 765.733 682.779 765.43C635.429 740.194 647.831 658.006 648.383 654.521C648.566 653.516 649.134 652.623 649.967 652.032C650.8 651.441 651.831 651.199 652.84 651.358C653.849 651.518 654.755 652.065 655.366 652.884C655.976 653.702 656.242 654.727 656.107 655.739C655.981 656.537 644.02 735.912 686.455 758.532C687.223 758.943 687.832 759.599 688.185 760.396C688.538 761.193 688.615 762.085 688.403 762.93C688.192 763.775 687.704 764.526 687.017 765.062C686.33 765.599 685.484 765.89 684.613 765.891V765.891Z" fill="#371A45"/>
<path d="M654.24 522.985L643.518 530.04L643.477 515.975L654.24 522.985Z" fill="#9BA5B1"/>
<path d="M623.469 543.251L641.401 514.627L641.442 531.411L623.469 543.251Z" fill="url(#paint0_linear_1142_2)"/>
<path d="M632.672 524.737L628.851 506.449L639.717 513.526L632.672 524.737Z" fill="url(#paint1_linear_1142_2)"/>
<ellipse cx="586" cy="912.5" rx="168.262" ry="18.5" fill="#371A45" fill-opacity="0.25"/>
<defs>
<linearGradient id="paint0_linear_1142_2" x1="610.923" y1="570.603" x2="649.47" y2="520.339" gradientUnits="userSpaceOnUse">
<stop stop-color="#0089CC"/>
<stop offset="1" stop-color="#88C2EA"/>
</linearGradient>
<linearGradient id="paint1_linear_1142_2" x1="600.65" y1="494.793" x2="650.604" y2="523.27" gradientUnits="userSpaceOnUse">
<stop stop-color="#3363AE"/>
<stop offset="1" stop-color="#0D1323"/>
</linearGradient>
</defs>
</svg>
