<?xml version="1.0" encoding="utf-8"?>
<!-- Generator: Adobe Illustrator 25.4.1, SVG Export Plug-In . SVG Version: 6.00 Build 0)  -->
<svg version="1.1" id="Layer_1" xmlns="http://www.w3.org/2000/svg" xmlns:xlink="http://www.w3.org/1999/xlink" x="0px" y="0px"
	 viewBox="0 0 272.8 411" style="enable-background:new 0 0 272.8 411;" xml:space="preserve">
<style type="text/css">
	.st0{fill:#ED1B24;}
	.st1{opacity:0.6;}
	.st2{fill:#FFFFFF;}
	.st3{opacity:0.35;}
	.st4{fill:#102770;}
	.st5{fill:#FFDA22;}
	.st6{fill:#371A45;}
	.st7{opacity:0.5;}
	.st8{opacity:0.7;}
	.st9{fill:#111A28;}
	.st10{fill:#22A7F0;}
	.st11{fill:#D8D8D8;}
</style>
<g>
	<g>
		<g>
			<g>
				<path class="st0" d="M186.4,66.2c28.6-18.5,43.4,30.7,72,12.2c1.9-18.2,3.9-36.3,5.8-54.5c-28.6,18.5-43.4-30.7-72-12.2
					C190.3,29.9,188.4,48.1,186.4,66.2z"/>
			</g>
		</g>
		<g class="st1">
			<path class="st2" d="M192.3,16.2c28.5-18.4,43.2,30.1,71.5,12.5c0.2-1.6,0.3-3.2,0.5-4.8c-28.6,18.5-43.4-30.7-72-12.2
				c-1.9,18.2-3.9,36.3-5.8,54.5c0.2-0.1,0.3-0.2,0.5-0.3C188.7,49.4,190.5,32.8,192.3,16.2z"/>
		</g>
		<g class="st3">
			<g>
				<path class="st4" d="M264.3,23.9c-2,18.2-3.9,36.3-5.9,54.5c-28.6,18.5-43.4-30.7-72-12.2c0.5-4.4,0.9-8.8,1.4-13.1
					c23.4-13.5,24.5,7.1,36,14.3c12.6,7.9,29.1-0.3,30.7-15.1c0.9-8.3,1.8-16.7,2.7-25C259.4,26.6,261.8,25.5,264.3,23.9z"/>
			</g>
		</g>
		<g>
			<g>
				<path class="st4" d="M245.4,84.6c-9.1,0-16.9-5.6-24.1-10.7c-10.6-7.5-20.6-14.6-33.8-6.1c-0.6,0.4-1.4,0.4-2.1,0
					c-0.6-0.4-1-1.1-0.9-1.8l5.8-54.5c0.1-0.6,0.4-1.1,0.9-1.4c15.4-10,27.5-1.4,38.2,6.1c10.6,7.5,20.6,14.6,33.8,6.1
					c0.6-0.4,1.4-0.4,2.1,0s1,1.1,0.9,1.8l-5.8,54.5c-0.1,0.6-0.4,1.1-0.9,1.4C254.5,83.3,249.8,84.6,245.4,84.6z M199.4,60.1
					c9.1,0,16.9,5.6,24.1,10.7c10.4,7.4,20.2,14.3,33.1,6.5l5.3-49.8c-13.8,6.8-24.9-1.1-34.8-8.1c-10.4-7.4-20.2-14.3-33.1-6.5
					l-5.3,49.8C192.5,60.9,196,60.1,199.4,60.1z"/>
			</g>
		</g>
		<g>
			<path class="st5" d="M225.5,36l7.7-7c0.6-0.6,1.6-0.2,1.7,0.7l0.9,10.4l9,5.2c0.7,0.4,0.7,1.5-0.1,1.8l-9.6,4l-2.1,10.2
				c-0.2,0.8-1.2,1.1-1.7,0.4l-6.8-7.9L214,54.9c-0.8,0.1-1.4-0.8-1-1.5l5.4-8.9l-4.3-9.5c-0.3-0.8,0.3-1.6,1.1-1.4L225.5,36z"/>
		</g>
		<g class="st3">
			<path class="st6" d="M244.6,47l-9.6,4l-2.1,10.2c-0.2,0.8-1.2,1.1-1.7,0.4l-6.8-7.9L214,54.9c-0.8,0.1-1.4-0.8-1-1.5l5.4-8.9
				l-4.3-9.5c-0.3-0.8,0.3-1.6,1.1-1.4l1.5,0.3c-0.4,0.2-0.7,0.7-0.5,1.2l2.1,4.6c1.1,2.4,0.9,5.1-0.5,7.3l-2.6,4.3
				c-0.4,0.6,0.6,0.9,1.3,0.8l5.2-0.9c2.6-0.3,3.9-1.4,6.1,2.1l1.7,2.8c0.5,0.6,1,0.4,1.1-0.3l1-4.9c0.5-2.5,4.4-2.2,6.8-3.2
				l4.7-1.9c0.5-0.2,0.6-0.7,0.5-1.1l1.1,0.6C245.5,45.6,245.4,46.7,244.6,47z"/>
		</g>
		<g>
			<path class="st4" d="M231.9,63.6c-0.7,0-1.5-0.3-2-0.9l-6.2-7.3l-9.5,1c-1,0.1-1.9-0.4-2.5-1.2c-0.5-0.8-0.5-1.9,0-2.7l5-8.2
				l-3.9-8.7c-0.4-0.9-0.3-2,0.4-2.7c0.6-0.8,1.6-1.1,2.6-0.9l9.3,2.2l7.1-6.4c0.7-0.7,1.8-0.9,2.7-0.5c0.9,0.4,1.6,1.2,1.6,2.2
				l0.8,9.5l8.3,4.8c0.9,0.5,1.4,1.4,1.3,2.4c-0.1,1-0.7,1.9-1.6,2.2l-8.8,3.7l-2,9.4c-0.2,1-0.9,1.7-1.9,2
				C232.3,63.6,232.1,63.6,231.9,63.6z M225,52.1l6.5,7.6l2.1-9.8l9.3-3.9l-8.7-5l-0.8-10l-7.4,6.7l-9.8-2.3l4.1,9.2l-5.2,8.6
				L225,52.1z"/>
		</g>
		<g class="st7">
			
				<ellipse transform="matrix(0.1147 -0.9934 0.9934 0.1147 167.359 263.1584)" class="st2" cx="231.3" cy="37.7" rx="3.9" ry="1.1"/>
		</g>
		<g>
			<g>
				<path class="st5" d="M194.6,320.3c-0.4,3.6-1,7.3-1.9,10.9c-1.9,8.3-5,16.5-9.4,24.3c-25.1,45.2-82,61.4-127.2,36.3
					c-36-20-53.6-60.2-46.6-98.5c1.8-9.8,5.2-19.5,10.3-28.7c8-14.4,19.2-25.8,32.2-33.9c2.1-1.3,4.2-2.5,6.4-3.7
					c11.8-6.1,24.7-9.7,37.9-10.4c0.1,0,0.2,0,0.3,0c0.8,0,1.6-0.1,2.4-0.1c1.6,0,3.2,0,4.8,0c11,0.3,22,2.5,32.6,6.8
					c3.5,1.4,7,3.1,10.4,4.9c0.7,0.4,1.5,0.8,2.2,1.2c0.4,0.3,0.9,0.5,1.3,0.8C182.2,249.7,198.5,285.3,194.6,320.3z"/>
			</g>
			<g class="st8">
				<g>
					<path class="st2" d="M59,235.5c-0.2,0.1-0.3,0.2-0.5,0.2c-2.2,1.1-4.3,2.4-6.4,3.7c-13,8.1-24.2,19.5-32.2,33.9
						c-5.1,9.2-8.5,18.9-10.3,28.7c-0.7,4.1-1.2,8.2-1.4,12.3c-0.3-7,0.1-14,1.4-21c1.8-9.8,5.2-19.5,10.3-28.7
						c8-14.4,19.2-25.8,32.2-33.9C53.8,232.6,56.1,234.2,59,235.5z"/>
				</g>
			</g>
			<g class="st8">
				<g>
					<path class="st2" d="M104.1,216.6c-0.1,0.1-0.2,0.1-0.2,0.2c-2.1,1.7-5.2,1.7-7.3,0c0,0,0,0-0.1,0c0.1,0,0.2,0,0.3,0
						c0.8,0,1.6-0.1,2.4-0.1C100.9,216.5,102.5,216.5,104.1,216.6z"/>
				</g>
			</g>
			<g class="st8">
				<g>
					<path class="st2" d="M195.1,314.5c-1.4-30.1-17.3-58.8-44.6-75.5c-0.4-0.3-0.8-0.5-1.3-0.8c-0.7-0.4-1.4-0.8-2.2-1.2
						c-1.4-0.8-2.8-1.5-4.2-2.2c2.8-1.4,5-3.2,6.4-5.2c0.4,0.3,0.9,0.5,1.3,0.8C180.4,248.7,196.6,281.4,195.1,314.5z"/>
				</g>
			</g>
			<g class="st3">
				<path class="st4" d="M149.2,229.6c-1.4,2-3.6,3.8-6.4,5.2c-4.6,2.4-10.8,3.8-17.7,3.8c-8.9,0-16.7-2.5-21.3-6.2
					c-2.1-1.7-5.2-1.7-7.3,0c-4.6,3.7-12.5,6.2-21.3,6.2c-6.1,0-11.8-1.2-16.2-3.1c-2.9-1.3-5.3-2.9-6.9-4.7
					c2.1-1.3,4.2-2.5,6.4-3.7c11.8-6.1,24.7-9.7,37.9-10.4c0,0,0,0,0.1,0c2.1,1.7,5.2,1.8,7.3,0c0.1-0.1,0.2-0.1,0.2-0.2
					c11,0.3,22,2.5,32.6,6.8c3.5,1.4,7,3.1,10.4,4.9C147.8,228.7,148.5,229.2,149.2,229.6z"/>
			</g>
			<g class="st3">
				<path class="st4" d="M56.2,384.1c45.2,25.1,102.1,8.8,127.2-36.3c4.3-7.8,7.5-16,9.4-24.3c0.8-3.6,1.5-7.3,1.9-10.9
					c0.7-6.5,0.7-13,0.1-19.4c0,0.3-0.1,0.6-0.1,0.9c-0.4,3.6-1,7.3-1.9,10.9c-1.9,8.3-5,16.5-9.4,24.3
					c-25.1,45.2-82,61.4-127.2,36.3c-27.9-15.5-44.7-43.1-47.6-72.6C5,329.1,22.6,365.4,56.2,384.1z"/>
			</g>
			<g>
				<path class="st4" d="M101,405.4c-15.7,0-31.6-3.9-46.2-12c-46-25.6-62.6-83.8-37.1-129.8h0c12.4-22.3,32.7-38.4,57.2-45.4
					c24.5-7,50.3-4,72.6,8.3c22.3,12.4,38.4,32.7,45.4,57.2c7,24.5,4,50.3-8.3,72.6C167.2,387.7,134.6,405.4,101,405.4z
					 M101.3,218.3c-8.4,0-16.9,1.2-25.3,3.6c-23.5,6.7-43,22.2-54.9,43.6c-24.5,44.1-8.6,100,35.6,124.5
					c14.1,7.8,29.3,11.5,44.3,11.5c32.2,0,63.5-17,80.2-47.1c11.9-21.4,14.7-46.1,8-69.6c-6.7-23.5-22.2-43-43.6-54.9
					C131.9,222.2,116.7,218.3,101.3,218.3z M19.4,264.5L19.4,264.5L19.4,264.5z"/>
			</g>
			<g>
				
					<ellipse transform="matrix(0.1351 -0.9908 0.9908 0.1351 -148.2689 343.5527)" class="st5" cx="122.6" cy="256.7" rx="8.2" ry="18.2"/>
			</g>
			<g>
				<path class="st4" d="M106.5,244c-1.3,1.2-2.2,2.6-2.7,4.2c-0.1,0.4-0.2,0.8-0.2,1.2c-0.1,0.4,0,0.8,0,1.2c0,0.8,0.2,1.6,0.5,2.3
					c0.5,1.5,1.5,2.9,2.7,4c1.2,1.2,2.5,2.2,4,3.1c3,1.7,6.3,2.9,9.7,3.5c1.7,0.3,3.4,0.5,5.2,0.5c1.7,0,3.4-0.1,5.1-0.4
					c1.7-0.3,3.3-0.7,4.8-1.4c1.5-0.7,2.9-1.5,4-2.6c1.1-1.1,1.9-2.4,2.2-3.8c0.3-1.4,0.1-2.9-0.5-4.4c-0.6-1.5-1.6-2.8-2.8-4
					c-0.6-0.6-1.2-1.2-1.9-1.7c-0.7-0.5-1.4-1-2.2-1.5c-0.7-0.5-1.5-0.9-2.3-1.3l-1.2-0.5l-0.6-0.3l-0.6-0.2l-1.3-0.5l-1.3-0.4
					c-0.4-0.1-0.9-0.3-1.3-0.4l-1.3-0.3l0,0c-0.3-0.1-0.5-0.4-0.4-0.7c0.1-0.3,0.3-0.5,0.6-0.4c1.9,0.2,3.7,0.4,5.6,1
					c0.9,0.2,1.8,0.6,2.7,0.9c0.9,0.4,1.8,0.7,2.6,1.2c0.9,0.4,1.7,0.9,2.5,1.4c0.8,0.6,1.6,1.1,2.3,1.8c1.5,1.3,2.8,2.9,3.7,4.8
					c0.9,1.9,1.4,4.1,1,6.3c-0.4,2.2-1.5,4.2-3,5.7c-1.5,1.5-3.3,2.6-5.1,3.5c-1.8,0.8-3.8,1.3-5.7,1.7c-1.9,0.4-3.9,0.4-5.9,0.4
					c-1.9-0.1-3.9-0.2-5.8-0.6c-1-0.2-1.9-0.4-2.8-0.7c-0.5-0.1-0.9-0.3-1.4-0.4c-0.5-0.2-0.9-0.3-1.4-0.5c-1.8-0.7-3.6-1.6-5.2-2.7
					c-1.6-1.1-3.2-2.4-4.5-3.9c-1.3-1.5-2.4-3.3-3-5.3c-0.3-1-0.4-2.1-0.3-3.1c0.1-0.5,0.1-1.1,0.2-1.6c0.1-0.5,0.3-1,0.5-1.5
					c0.8-1.9,2.2-3.5,3.8-4.6c0.3-0.2,0.8-0.1,1,0.2C106.8,243.3,106.7,243.7,106.5,244L106.5,244z"/>
			</g>
			<g>
				<path class="st4" d="M118.9,271.6c3.1,0.7,6.2,0.9,9.3,0.6c3.1-0.3,6.1-1.1,8.9-2.3c2.8-1.2,5.5-2.8,7.7-4.9
					c2.2-2.1,3.9-4.7,4.3-7.8l0,0c0-0.3,0.3-0.5,0.7-0.5c0.3,0,0.4,0.2,0.5,0.5c0.4,1.7,0.2,3.6-0.4,5.3c-0.6,1.7-1.5,3.3-2.7,4.7
					c-2.3,2.8-5.3,4.8-8.5,6.3c-3.2,1.4-6.7,2.2-10.3,2.1c-3.5,0-7.1-0.9-10-2.8c-0.3-0.2-0.4-0.7-0.2-1
					C118.3,271.7,118.6,271.6,118.9,271.6L118.9,271.6z"/>
			</g>
			<g>
				
					<ellipse transform="matrix(4.024604e-02 -0.9992 0.9992 4.024604e-02 -163.2372 465.1537)" class="st5" cx="160.5" cy="317.5" rx="18.2" ry="8.2"/>
			</g>
			<g>
				<path class="st4" d="M171.6,300.2c-1.3-1.1-2.8-2-4.4-2.2c-0.4-0.1-0.8-0.1-1.2-0.1c-0.4,0-0.8,0.1-1.2,0.1
					c-0.8,0.1-1.5,0.4-2.2,0.7c-1.4,0.7-2.7,1.8-3.8,3.1c-1.1,1.3-2,2.7-2.7,4.3c-1.4,3.1-2.3,6.5-2.5,10c-0.2,1.7-0.1,3.5,0,5.2
					c0.2,1.7,0.4,3.4,0.9,5.1c0.4,1.6,1,3.2,1.8,4.7c0.8,1.4,1.8,2.7,3,3.7c1.2,1,2.5,1.7,4,1.8c1.4,0.2,2.9-0.2,4.3-0.9
					c1.4-0.7,2.6-1.9,3.7-3.2c0.6-0.6,1-1.4,1.5-2.1c0.4-0.7,0.9-1.5,1.3-2.3c0.4-0.8,0.7-1.6,1.1-2.4l0.4-1.3l0.2-0.6l0.2-0.6
					l0.4-1.3l0.3-1.3c0.1-0.4,0.2-0.9,0.2-1.3l0.2-1.3l0,0c0-0.3,0.3-0.5,0.7-0.5c0.3,0,0.5,0.3,0.5,0.6c0,1.9-0.1,3.8-0.4,5.6
					c-0.1,0.9-0.4,1.9-0.6,2.8c-0.3,0.9-0.5,1.8-0.9,2.7c-0.3,0.9-0.8,1.8-1.2,2.6c-0.5,0.8-1,1.7-1.6,2.5c-1.2,1.6-2.6,3.1-4.4,4.2
					c-1.8,1.1-4,1.8-6.2,1.6c-2.2-0.1-4.3-1.1-6-2.4c-1.7-1.3-2.9-3-3.9-4.7c-1-1.8-1.7-3.6-2.2-5.5c-0.6-1.9-0.8-3.8-1-5.8
					c-0.1-1.9-0.1-3.9,0.1-5.8c0.1-1,0.3-1.9,0.4-2.9c0.1-0.5,0.2-0.9,0.3-1.4c0.1-0.5,0.2-0.9,0.4-1.4c0.5-1.9,1.3-3.7,2.2-5.4
					c0.9-1.7,2.1-3.4,3.4-4.8c1.4-1.4,3.1-2.7,5-3.4c1-0.4,2-0.6,3.1-0.6c0.5,0,1.1,0,1.6,0c0.5,0.1,1,0.2,1.5,0.3
					c2,0.6,3.7,1.9,4.9,3.3c0.3,0.3,0.2,0.8-0.1,1C172.3,300.5,171.9,300.5,171.6,300.2L171.6,300.2z"/>
			</g>
			<g>
				<path class="st4" d="M145.3,315.3c-0.4,3.2-0.3,6.3,0.2,9.3c0.6,3,1.6,5.9,3.1,8.6c1.5,2.7,3.3,5.2,5.6,7.2c2.3,2,5,3.4,8.2,3.5
					l0,0c0.3,0,0.6,0.3,0.6,0.6c0,0.3-0.2,0.5-0.4,0.5c-1.7,0.5-3.6,0.5-5.3,0.1c-1.8-0.4-3.4-1.2-4.9-2.2c-3-2-5.3-4.8-7-7.8
					c-1.7-3.1-2.8-6.5-3.1-10c-0.3-3.5,0.2-7.1,1.8-10.2c0.2-0.4,0.6-0.5,1-0.3C145.2,314.7,145.3,315,145.3,315.3L145.3,315.3z"/>
			</g>
			<g class="st3">
				
					<ellipse transform="matrix(0.1553 -0.9879 0.9879 0.1553 -225.8506 350.399)" class="st4" cx="92" cy="307.3" rx="14.9" ry="17.5"/>
			</g>
			<g>
				
					<ellipse transform="matrix(0.991 -0.1342 0.1342 0.991 -41.1437 15.5329)" class="st5" cx="94.7" cy="313" rx="13.2" ry="10.6"/>
			</g>
			<g>
				<path class="st4" d="M88.9,323.3c-3.8-0.4-7.5-1.9-10.6-4.4c-1.5-1.3-2.9-2.8-4-4.5c-1.1-1.7-1.8-3.7-2.2-5.7
					c-0.4-2-0.3-4.2,0.3-6.2c0.5-2,1.4-3.9,2.7-5.6c1.3-1.7,2.9-3,4.6-4.1c1.7-1.1,3.6-1.9,5.6-2.4c2-0.5,4-0.7,6-0.7
					c2,0,4,0.3,5.9,0.9c1.9,0.6,3.8,1.4,5.5,2.4c1.7,1,3.2,2.4,4.6,3.9c2.7,3,4.3,7,4.2,11c-0.1,2-0.5,4-1.4,5.8
					c-0.4,0.9-1,1.7-1.6,2.5c-0.6,0.8-1.3,1.4-2,2.1c-0.2,0.2-0.6,0.2-0.8,0c-0.2-0.2-0.2-0.6,0-0.8l0,0c2.3-2.7,3.6-6.1,3.3-9.5
					c-0.2-3.4-1.7-6.5-4.1-8.9c-4.7-4.8-12.2-6.6-18.6-4.9c-3.2,0.9-6.2,2.6-8.1,5.2c-2,2.5-3,5.8-2.6,9c0.4,3.2,2.1,6.3,4.5,8.7
					c2.5,2.4,5.6,4.1,9.1,5l0,0c0.4,0.1,0.6,0.5,0.5,0.9C89.6,323.1,89.3,323.4,88.9,323.3z"/>
			</g>
			<g>
				<path class="st4" d="M116.3,301.9c1.7,3.3,2.4,7.3,1.9,11.1c-0.5,3.9-2.2,7.5-4.7,10.5c-2.5,3-5.8,5.3-9.3,6.8
					c-3.6,1.5-7.4,2.3-11.3,2.3c-3.8,0-7.7-0.6-11.3-2c-3.6-1.4-6.9-3.4-9.7-6.1c-2.8-2.6-5-5.9-6.2-9.5c-1.2-3.6-1.4-7.6-0.5-11.2
					c0.1-0.3,0.4-0.5,0.7-0.4c0.3,0.1,0.5,0.3,0.4,0.6l0,0c-0.4,3.5,0.2,7,1.6,10.1c1.4,3.1,3.6,5.8,6.1,8c5.1,4.4,12,6.7,18.8,6.6
					c3.4-0.1,6.7-0.7,9.8-2c1.6-0.6,3-1.4,4.4-2.3c0.3-0.2,0.7-0.5,1-0.7c0.3-0.3,0.7-0.5,1-0.8l0.9-0.8c0.2-0.1,0.3-0.3,0.5-0.4
					l0.4-0.5l0.8-0.9c0.3-0.3,0.5-0.7,0.7-1c0.5-0.7,0.9-1.4,1.3-2.1c0.2-0.4,0.4-0.7,0.5-1.1l0.5-1.1c0.2-0.8,0.5-1.6,0.7-2.4
					c0.7-3.3,0.5-6.8-0.6-10.1c-0.1-0.4,0.1-0.8,0.5-0.9C115.8,301.4,116.1,301.6,116.3,301.9z"/>
			</g>
			<g class="st3">
				
					<ellipse transform="matrix(0.998 -6.395615e-02 6.395615e-02 0.998 -16.1355 4.3061)" class="st4" cx="59.2" cy="254.2" rx="9.3" ry="7.9"/>
			</g>
			<g>
				<ellipse transform="matrix(0.9378 -0.3471 0.3471 0.9378 -85.3544 37.237)" class="st5" cx="61.3" cy="256.8" rx="7" ry="5.6"/>
			</g>
			<g>
				<path class="st4" d="M59.5,263c-2,0.3-4.2,0-6.2-0.9c-1-0.5-1.9-1.1-2.7-1.9c-0.8-0.8-1.4-1.7-1.9-2.8c-0.9-2.1-0.8-4.7,0.1-6.8
					c1-2.1,2.7-3.7,4.7-4.8c1-0.5,2-0.9,3.1-1.1c1.1-0.2,2.2-0.3,3.3-0.2c1.1,0.1,2.2,0.3,3.2,0.7c1,0.4,2,0.9,2.9,1.6
					c1.8,1.3,3.1,3.3,3.5,5.5c0.4,2.2-0.2,4.4-1.5,6.1c-0.2,0.2-0.4,0.2-0.6,0.1c-0.2-0.1-0.2-0.4-0.1-0.5c0.8-1.7,1-3.5,0.5-5.2
					c-0.5-1.6-1.6-3-3.1-3.9c-2.9-1.8-6.8-1.9-9.8-0.3c-1.5,0.8-2.8,2-3.4,3.4c-0.7,1.4-0.8,3.1-0.3,4.6c0.5,1.5,1.7,2.9,3.1,3.8
					c1.5,1,3.3,1.5,5.1,1.6l0,0c0.3,0,0.5,0.3,0.5,0.6C59.9,262.8,59.7,263,59.5,263z"/>
			</g>
			<g>
				<path class="st4" d="M71.3,248.5c1.3,1.5,2.2,3.5,2.4,5.6c0.2,2.1-0.2,4.3-1.2,6.2c-0.9,1.9-2.4,3.5-4.1,4.8
					c-1.7,1.2-3.7,2.1-5.7,2.6c-4.1,0.9-8.5,0.4-12-1.9c-1.8-1.1-3.3-2.6-4.4-4.4c-1-1.8-1.6-3.9-1.4-5.9c0-0.2,0.2-0.4,0.5-0.4
					c0.2,0,0.4,0.2,0.4,0.4l0,0c0.3,1.8,1,3.5,2.1,4.9c1.1,1.4,2.5,2.5,4,3.3c3.1,1.6,6.8,1.9,10.2,1.1c1.7-0.4,3.3-1.1,4.7-2.1
					c1.4-1,2.7-2.2,3.5-3.7l0.3-0.6c0.1-0.2,0.2-0.4,0.3-0.6c0.2-0.4,0.3-0.8,0.4-1.2c0.1-0.4,0.2-0.8,0.3-1.2
					c0-0.4,0.1-0.9,0.1-1.3c0-1.7-0.4-3.5-1.3-5.1l0,0c-0.1-0.3,0-0.6,0.2-0.7C70.9,248.3,71.1,248.3,71.3,248.5z"/>
			</g>
			<g>
				<path class="st4" d="M39,276.8c5,1.1,9.3,5.2,11.1,10.2c0.9,2.5,1.3,5.1,1.2,7.8c-0.1,2.6-0.7,5.2-1.7,7.6
					c-2,4.8-5.6,8.9-10.1,11.5c-2.2,1.3-4.7,2.2-7.2,2.6c-2.5,0.4-5.1,0.3-7.5-0.3c-0.3-0.1-0.5-0.4-0.4-0.7
					c0.1-0.3,0.3-0.4,0.6-0.4l0,0c4.7,0.2,9.2-1.3,12.8-3.8c3.7-2.6,6.6-6.2,8.2-10.3c1.6-4.1,2.1-8.6,0.9-12.8
					c-0.3-1-0.7-2.1-1.2-3c-0.3-0.5-0.5-1-0.8-1.4c-0.3-0.4-0.6-0.9-1-1.3c-0.7-0.9-1.5-1.6-2.4-2.3c-0.9-0.7-1.9-1.3-2.9-1.8l0,0
					c-0.4-0.2-0.5-0.6-0.3-1C38.3,276.9,38.7,276.7,39,276.8z"/>
			</g>
			<g class="st3">
				
					<ellipse transform="matrix(0.3304 -0.9438 0.9438 0.3304 -259.1783 226.8627)" class="st4" cx="30.3" cy="296.1" rx="14.5" ry="12"/>
			</g>
			<g>
				<path class="st5" d="M27.9,308.2c4.2,0.7,9-1.4,12-5.9c4-5.9,3.3-13.7-1.5-17.3c-0.7-0.5-1.4-0.9-2.2-1.2
					c-3.3,0.8-6.5,3-8.8,6.4C23.4,296.2,23.7,303.9,27.9,308.2z"/>
			</g>
			<g>
				<path class="st4" d="M19.5,288.9c1.4-2.5,3.7-4.5,6.3-5.8c1.3-0.6,2.8-1.1,4.3-1.3c1.5-0.2,3.1-0.1,4.6,0.3
					c1.5,0.4,3,1.1,4.2,2.1c1.3,1,2.4,2.2,3.1,3.6c1.5,2.8,2,6.1,1.4,9.1c-1.1,6.1-5.8,11.2-11.7,12.7c-2.9,0.8-6.2,0.5-8.9-0.8
					c-2.7-1.4-4.7-3.9-5.5-6.7c-0.1-0.3,0.1-0.6,0.4-0.7c0.3-0.1,0.5,0.1,0.7,0.3c1.2,2.3,3.1,4,5.4,4.9c2.2,0.8,4.7,0.7,7,0
					c4.5-1.5,8.1-5.7,8.8-10.3c0.4-2.3,0.1-4.7-0.9-6.6c-1-2-2.8-3.5-5-4.2c-1.1-0.4-2.2-0.5-3.4-0.5c-1.2,0-2.4,0.3-3.5,0.7
					c-2.3,0.8-4.4,2.3-6.2,4.2l0,0c-0.3,0.3-0.7,0.3-1,0C19.4,289.5,19.3,289.2,19.5,288.9z"/>
			</g>
			<g>
				<g>
					<path class="st5" d="M54,354.4c-4.4,2.3-7.8,5.7-9.8,10c-3.5,7.8-1,16.5,5.4,24.1c4.2,5,10.1,9.3,17.3,12.3
						c18.2,7.4,37.6,2.8,43.4-10.1c2.1-4.8,2.1-10.1,0.3-15.3c-3.1-8.7-11.5-16.4-22.9-21.1"/>
				</g>
				<g>
					<path class="st4" d="M44.9,364.7c-1.3,3.6-1.5,7.6-0.5,11.2c1,3.7,2.9,7,5.3,10c2.4,3,5.2,5.6,8.4,7.8c3.1,2.2,6.6,4,10.2,5.4
						c3.6,1.4,7.3,2.4,11.2,2.9c3.8,0.5,7.7,0.5,11.5,0c3.8-0.6,7.5-1.7,10.8-3.6c3.3-1.9,6.1-4.7,8-8.1l0,0
						c0.2-0.3,0.5-0.4,0.8-0.2c0.3,0.1,0.4,0.4,0.3,0.7c-1.4,3.9-4.3,7.3-7.7,9.7c-3.5,2.4-7.5,3.9-11.6,4.7
						c-8.3,1.6-16.8,0.5-24.6-2.5c-3.9-1.5-7.6-3.5-11-6c-3.4-2.5-6.4-5.4-8.8-8.9c-2.5-3.4-4.4-7.3-5.2-11.5
						c-0.4-2.1-0.5-4.3-0.2-6.4c0.3-2.1,0.9-4.2,1.9-6c0.2-0.4,0.6-0.5,1-0.3C44.8,364,45,364.4,44.9,364.7z"/>
				</g>
				<g class="st3">
					
						<ellipse transform="matrix(0.2558 -0.9667 0.9667 0.2558 -307.3249 355.494)" class="st4" cx="77.2" cy="377.3" rx="19.6" ry="27"/>
				</g>
				<g>
					
						<ellipse transform="matrix(0.1763 -0.9843 0.9843 0.1763 -312.1568 392.5997)" class="st5" cx="78.5" cy="382.8" rx="14.4" ry="22.9"/>
				</g>
				<g>
					<path class="st4" d="M94.6,394.4c2.1-1.3,3.9-2.9,5.2-4.8c1.3-1.9,2.1-4.2,2.3-6.4c0.2-2.3-0.2-4.6-1-6.8
						c-0.8-2.2-2.1-4.2-3.6-6c-3-3.6-7-6.5-11.3-8.5c-4.3-2-9.1-3.2-13.8-3.3c-4.7-0.1-9.5,0.9-13.4,3.3c-1.9,1.2-3.5,2.8-4.6,4.8
						c-1.1,1.9-1.7,4.1-1.8,6.4c0,2.3,0.5,4.6,1.4,6.7c0.9,2.2,2.2,4.2,3.8,6c3.1,3.7,7.2,6.6,11.7,8.7l0,0c0.3,0.1,0.4,0.5,0.3,0.8
						c-0.1,0.3-0.4,0.4-0.7,0.3c-4.8-1.7-9.4-4.4-13.1-8.2c-1.8-1.9-3.4-4-4.6-6.5c-1.2-2.4-2-5.1-2-7.9c-0.1-2.8,0.6-5.6,1.9-8.1
						c1.4-2.5,3.4-4.6,5.7-6.1c2.3-1.6,4.9-2.6,7.5-3.3c2.6-0.7,5.3-0.9,8-0.9c5.3,0.1,10.6,1.4,15.4,3.7c4.8,2.3,9.2,5.5,12.4,9.8
						c1.6,2.1,3,4.5,3.8,7.1c0.9,2.6,1.2,5.4,0.8,8.1c-0.4,2.7-1.6,5.3-3.3,7.4c-1.7,2.1-3.9,3.7-6.3,4.8c-0.4,0.2-0.8,0-1-0.4
						C94.2,395,94.3,394.6,94.6,394.4L94.6,394.4z"/>
				</g>
			</g>
		</g>
		<g>
			<path class="st2" d="M79.4,182.3h42.1c11.9,0,21.6-9.7,21.6-21.6v-41.5c0-11.9-9.7-21.6-21.6-21.6H79.4
				c-11.9,0-21.6,9.7-21.6,21.6v41.5C57.8,172.6,67.5,182.3,79.4,182.3z"/>
		</g>
		<g>
			<path class="st4" d="M121.5,184.2H79.4c-13,0-23.6-10.6-23.6-23.6v-41.5c0-13,10.6-23.6,23.6-23.6h42.1c13,0,23.6,10.6,23.6,23.6
				v41.5C145.1,173.7,134.5,184.2,121.5,184.2z M79.4,99.5c-10.9,0-19.7,8.8-19.7,19.7v41.5c0,10.9,8.8,19.7,19.7,19.7h42.1
				c10.9,0,19.7-8.8,19.7-19.7v-41.5c0-10.9-8.8-19.7-19.7-19.7H79.4z"/>
		</g>
		<g>
			<path class="st2" d="M57.9,223.7c0.7,6.7,8.4,9.1,22.6,7.3c6.2-0.8,11.2-1.7,13.4-6.4c4.5-9.4,0.4-24.9,1-37.1
				c0,0,2.5,0.5,5.6,0.5c3.1,0,5.6-0.5,5.6-0.5c0.5,12.2-3.6,27.7,1,37.1c2.3,4.7,7.2,5.6,13.4,6.4c14.2,1.8,21.9-0.7,22.6-7.3
				c0.8-7.6-10.3-11.1-10.3-11.1s5.6-16.1,7.2-30.7c0.6-5.8,0.8-11.8,0.6-17.8c-0.1-2.6-0.2-5.1-0.4-7.6c-0.5-7.1-1.4-14.1-2.5-20.5
				c-1.1-6.3-2.3-12.2-3.4-17.1c-1.1-4.8-2.2-8.8-3-11.7c-0.9-3.1-1.5-4.9-1.5-4.9H71.2c0,0-1.4,4.2-3.1,11.2c-1,3.9-2.1,8.7-3.2,14
				c-1.6,8.1-3.2,17.6-3.9,27.5c-0.3,3.6-0.5,7.3-0.5,11c-0.1,5.4,0.1,10.8,0.7,16c1.6,14.5,7.2,30.7,7.2,30.7
				S57.1,216.1,57.9,223.7z"/>
		</g>
		<g class="st3">
			<path class="st4" d="M58,224.4c1.1,6.2,8.8,8.4,22.5,6.7c6.2-0.8,11.2-1.7,13.4-6.4c4.5-9.4,0.4-24.9,1-37.1c0,0,2.5,0.5,5.6,0.5
				c3.1,0,5.6-0.5,5.6-0.5c0.5,12.2-3.6,27.7,1,37.1c2.3,4.7,7.2,5.6,13.4,6.4c14.2,1.8,21.9-0.7,22.6-7.3c0-0.1,0-0.2,0-0.3
				c-4.6,1.7-11.4,1.9-20.3,0.8c-7.5-0.9-11.1-2-13.8-7.8c-5.5-11.4,8.1-18.4,7.5-33.2c0,0-12.8,0.7-16.5,0.7c-3.8,0-16-0.7-16-0.7
				c-0.7,14.8,12.1,21.8,6.7,33.2c-2.7,5.7-8.7,6.8-16.3,7.8C67.7,225,62.2,225.1,58,224.4z"/>
		</g>
		<g>
			<path class="st4" d="M72.4,233.6c-5.9,0-10.2-1.1-12.9-3.3c-2-1.6-3.2-3.7-3.4-6.4c-0.7-7,6.3-11,9.8-12.5
				c-1.5-4.6-5.3-17.4-6.7-29.3c-4-36.1,10.1-80,10.2-80.4c0.3-1,1.4-1.6,2.4-1.2c1,0.3,1.6,1.4,1.2,2.4c-0.1,0.4-13.9,43.5-10,78.8
				c1.6,14.2,7,30.1,7.1,30.2l0.6,1.9l-1.9,0.6c-0.1,0-9.6,3.1-9,9.1c0.2,1.6,0.8,2.8,2,3.7c2.1,1.6,6.9,3.3,18.4,1.9
				c6-0.7,10.1-1.5,11.9-5.3c2.7-5.7,2-14.2,1.4-22.5c-0.4-4.7-0.8-9.5-0.6-13.9l0.1-2.3l2.2,0.5c0,0,2.4,0.5,5.2,0.5
				c2.8,0,5.2-0.5,5.2-0.5l2.2-0.5l0.1,2.3c0.2,4.4-0.2,9.2-0.6,13.9c-0.7,8.3-1.4,16.8,1.4,22.5c1.8,3.8,5.9,4.6,11.9,5.3
				c11.5,1.4,16.3-0.2,18.4-1.9c1.2-0.9,1.8-2.2,2-3.7c0.6-5.9-8.9-9-9-9.1l-1.9-0.6l0.6-1.9c0.1-0.2,5.5-16.1,7.1-30.2
				c3.9-35.3-9.9-78.4-10-78.8c-0.3-1,0.2-2.1,1.2-2.4c1-0.3,2.1,0.2,2.4,1.2c0.1,0.4,14.2,44.3,10.2,80.4
				c-1.3,11.9-5.2,24.7-6.7,29.3c3.5,1.5,10.6,5.5,9.8,12.5c-0.3,2.6-1.4,4.8-3.4,6.4c-3.9,3.1-10.9,4-21.3,2.7
				c-5.4-0.7-12.1-1.5-15-7.5c-3.2-6.6-2.4-15.7-1.7-24.5c0.3-3.8,0.6-7.6,0.6-11.2c-1,0.1-2.3,0.2-3.7,0.2c-1.4,0-2.7-0.1-3.7-0.2
				c0,3.6,0.3,7.5,0.6,11.2c0.7,8.8,1.5,17.9-1.7,24.5c-2.9,6-9.6,6.8-15,7.5C77.6,233.4,74.8,233.6,72.4,233.6z"/>
		</g>
		<g>
			<path class="st2" d="M122.9,103.8l7,17.8l5.2,13.2c0.9,0.4,1.7,0.8,2.6,1.2c19,7.6,44.2-1.4,48.9-13.7c1.2-3.1,2-11.6-0.9-16.2
				c-6.9-11.4-12.6-0.4-15.7,1.8c-4.6,3.3-14.5,5-27.3,2.6c-3.6-0.7-7.5-1.7-11.5-3.1C128.5,106.3,125.8,105.1,122.9,103.8z"/>
		</g>
		<g class="st3">
			<path class="st4" d="M135.1,134.8L135.1,134.8c19.2,9.7,46.6,0.3,51.5-12.6c0.7-1.9,1.3-5.8,1-9.7c-0.2,2.1-2.7,3.4-3.1,4.5
				c-3.7,11.4-24.9,16.7-44.3,11.9C136.7,128.2,133.8,131.5,135.1,134.8z"/>
		</g>
		<g>
			<path class="st4" d="M152.9,140.7c-6.2,0-12.7-1.2-18.7-4.2c-1-0.5-1.3-1.6-0.9-2.6c0.5-1,1.6-1.3,2.6-0.9
				c11.4,5.8,25.1,4.1,34,0.6c7.5-2.9,13-7.4,14.7-12.1c1.1-2.9,1.7-10.6-0.7-14.5c-1.1-1.8-2.8-4-4.5-4.1c-2-0.2-4.3,2.3-5.9,4.1
				c-0.9,1-1.6,1.8-2.4,2.4c-7.9,5.7-27.3,6.3-49.1-3.8c-1-0.4-1.4-1.6-0.9-2.6c0.4-1,1.6-1.4,2.6-0.9c22.6,10.4,39.7,8.1,45.2,4.2
				c0.4-0.3,1.1-1,1.8-1.8c2.2-2.4,5.2-5.7,9.2-5.4c2.7,0.3,5.2,2.2,7.5,6c3.2,5.3,2.4,14.3,1,17.9c-2.2,5.8-8.4,11-17,14.4
				C166.3,139.3,159.7,140.7,152.9,140.7z"/>
		</g>
		<g>
			<path class="st2" d="M10,94.3c6.6,16.8,38.5,33.1,54.8,33.2c0.5,0,0.9,0,1.3,0l6.1-10.6l8.5-14.6l0.3-0.5
				c-8.9,0.7-16.8-0.8-23.3-3c-11.6-3.9-18.7-10-18.7-10s-1.9-10.5-6-11.4c-5.2-1.1-5.1,6.2-5.6,6.2c-0.4,0-10.8-14.4-16.9-2.9
				C9.3,83.4,8.8,91.2,10,94.3z"/>
		</g>
		<g class="st3">
			<path class="st4" d="M10,94.3c6.8,17.2,40.3,34,56.2,33.2l0,0c2-3.5-0.1-7.9-4.1-8.6c-17.7-2.8-42.3-13.5-52.7-32.7
				C9.2,89.2,9.3,92.5,10,94.3z"/>
		</g>
		<g>
			<path class="st4" d="M65.1,129.4c-16.5,0-49.7-16.3-56.9-34.4c-1.4-3.5-1-11.9,0.7-15.2c1.7-3.3,4-5.1,6.7-5.4
				c4.3-0.5,8.4,2.9,10.9,5.4c0.5-1.3,1.2-2.7,2.6-3.6c0.9-0.6,2.3-1.1,4.4-0.7c4.7,1,6.7,9.3,7.4,12.2c3,2.3,18.7,13.8,40,12.1
				c1.1-0.1,2,0.7,2.1,1.8c0.1,1.1-0.7,2-1.8,2.1c-1.6,0.1-3.1,0.2-4.6,0.2c-22.8,0-38.1-13.1-38.8-13.6l-0.5-0.4l-0.1-0.7
				c-0.8-4.4-2.8-9.5-4.5-9.8c-0.8-0.2-1.2,0-1.4,0.1c-1,0.6-1.4,2.7-1.6,3.7c-0.2,0.9-0.5,2.4-2.1,2.5c-1,0-1.4-0.5-2.2-1.4
				c-1.4-1.6-5.8-6.4-9.2-6c-1.4,0.2-2.7,1.3-3.8,3.4c-1.1,2.1-1.6,9.3-0.6,11.9c6.7,16.9,39.7,32.7,54.3,31.9c1.1-0.1,2,0.8,2,1.8
				c0.1,1.1-0.8,2-1.8,2C65.9,129.4,65.5,129.4,65.1,129.4z"/>
		</g>
		<g>
			<g class="st3">
				<path class="st4" d="M57.8,98.8c2.1,5.3,5.3,10.1,9.6,14c0.2,0.2,0.4,0.4,0.6,0.6c1.3,1.2,2.7,2.3,4.3,3.4
					c6,4.3,13.8,8.1,23.7,9.7c13,2.1,23.6-0.4,31.5-3.9c0.8-0.3,1.5-0.7,2.3-1.1c1.5-0.8,3-1.7,4.4-2.7c3.3-2.4,6.1-5.2,8.5-8.5
					c-3.6-0.7-7.5-1.7-11.5-3.1c-0.9-3.1-1.5-4.9-1.5-4.9h-49l0.3-0.5C72.2,102.5,64.3,101,57.8,98.8z"/>
			</g>
			<g>
				<g>
					<path class="st2" d="M155.2,81L155.2,81c-0.6,0-1.1-0.6-1-1.2l2-31.3c0-0.6,0.6-1.1,1.2-1h0c6.3,0.4,11.1,5.8,10.7,12.1
						l-0.7,10.7C166.9,76.6,161.5,81.4,155.2,81z"/>
					<path class="st6" d="M155.9,81.2c-0.3,0-0.5,0-0.8,0l0,0c-0.4,0-0.7-0.2-0.9-0.5c-0.2-0.3-0.4-0.6-0.3-1l2-31.3
						c0-0.7,0.7-1.3,1.4-1.3c3.1,0.2,6,1.6,8,3.9c2.1,2.3,3.1,5.3,2.9,8.5l-0.7,10.7c-0.2,3.1-1.6,6-3.9,8
						C161.5,80.2,158.7,81.2,155.9,81.2z M155.2,80.7c3,0.2,5.8-0.8,8.1-2.8c2.2-2,3.6-4.7,3.8-7.7l0.7-10.7c0.2-3-0.8-5.8-2.8-8.1
						c-2-2.2-4.7-3.6-7.7-3.8c-0.5,0-0.9,0.3-0.9,0.8l-2,31.3c0,0.2,0.1,0.4,0.2,0.6C154.8,80.6,155,80.7,155.2,80.7L155.2,80.7z"/>
				</g>
				<g class="st3">
					<path class="st4" d="M167.6,65.3l-0.3,5c-0.4,6.3-5.8,11.1-12.1,10.7c-0.6,0-1.1-0.6-1-1.2l0.5-8.3c0.1,0.4,0.5,0.7,0.9,0.7
						l0.7,0C161.3,72.6,165.8,69.7,167.6,65.3z"/>
				</g>
				<g>
					<path class="st4" d="M155.9,82.7c-0.3,0-0.6,0-0.9,0l0,0c-0.7,0-1.4-0.4-1.9-0.9c-0.5-0.6-0.7-1.3-0.7-2l2-31.3
						c0.1-1.5,1.4-2.7,3-2.6c3.5,0.2,6.7,1.8,9,4.4c2.3,2.6,3.5,6,3.2,9.5L169,70.4c-0.2,3.5-1.8,6.7-4.4,9
						C162.2,81.6,159.1,82.7,155.9,82.7z M157.8,49.3l-1.9,30c2.4,0,4.6-0.8,6.4-2.4c1.9-1.7,3.1-4.1,3.3-6.7l0.7-10.7
						c0.2-2.6-0.7-5.1-2.4-7C162.3,50.7,160.2,49.6,157.8,49.3z M155.3,79.3C155.3,79.3,155.3,79.3,155.3,79.3
						C155.3,79.3,155.3,79.3,155.3,79.3L155.3,79.3z"/>
				</g>
				<g>
					<path class="st2" d="M54,40.9L54,40.9c0.6,0,1.1,0.6,1,1.2l-2,31.3c0,0.6-0.6,1.1-1.2,1h0c-6.3-0.4-11.1-5.8-10.7-12.1
						l0.7-10.7C42.3,45.3,47.7,40.5,54,40.9z"/>
					<path class="st6" d="M52,74.7C52,74.7,51.9,74.6,52,74.7c-3.2-0.2-6-1.6-8.1-3.9c-2.1-2.3-3.1-5.3-2.9-8.5l0.7-10.7
						c0.2-3.1,1.6-6,3.9-8c2.3-2.1,5.3-3.1,8.5-2.9l0,0c0.7,0,1.3,0.7,1.3,1.4l-2,31.3C53.3,74.1,52.7,74.7,52,74.7z M53.3,41.2
						c-2.7,0-5.3,1-7.4,2.8c-2.2,2-3.6,4.7-3.8,7.7l-0.7,10.7c-0.4,6.1,4.3,11.5,10.4,11.9c0.5,0,0.9-0.3,0.9-0.8l2-31.3
						c0-0.5-0.3-0.9-0.8-0.9C53.8,41.2,53.5,41.2,53.3,41.2z"/>
				</g>
				<g class="st3">
					<path class="st4" d="M53.6,64.7l-0.6,8.7c0,0.6-0.6,1.1-1.2,1c-3.3-0.2-6.2-1.8-8.1-4.2c-1.8-2.1-2.7-4.9-2.5-7.9l0.3-4.5
						c1.5,4.1,5.3,7.1,10,7.4l1.1,0.1C53,65.2,53.4,65,53.6,64.7z"/>
				</g>
				<g>
					<path class="st4" d="M52,76.1c-0.1,0-0.1,0-0.2,0c-7.2-0.5-12.7-6.7-12.3-13.9l0.7-10.7c0.2-3.5,1.8-6.7,4.4-9
						c2.6-2.3,6-3.5,9.5-3.2l0,0c1.5,0.1,2.7,1.4,2.6,3l-2,31.3C54.7,75,53.4,76.1,52,76.1z M53.3,42.6c-2.4,0-4.6,0.8-6.4,2.4
						c-1.9,1.7-3.1,4.1-3.3,6.7L43,62.4c-0.2,2.6,0.7,5.1,2.4,7c1.6,1.8,3.7,2.9,6,3.2L53.3,42.6z M53.9,42.7
						C53.9,42.7,53.9,42.7,53.9,42.7C53.9,42.7,53.9,42.7,53.9,42.7z"/>
				</g>
				<g>
					
						<ellipse transform="matrix(0.7071 -0.7071 0.7071 0.7071 -12.4629 91.8246)" class="st2" cx="104.6" cy="61" rx="53.4" ry="53.4"/>
					<path class="st6" d="M104.6,114.6c-2.4,0-4.8-0.2-7.2-0.5c-14.2-1.9-26.8-9.3-35.5-20.7C53.2,82.1,49.5,68,51.4,53.8
						c1.9-14.2,9.3-26.8,20.7-35.5C83.5,9.6,97.6,5.8,111.8,7.8c29.3,4,50,31.1,46,60.4C154.2,95.1,131.1,114.6,104.6,114.6z
						 M104.6,7.8c-26.2,0-49,19.4-52.6,46c-3.9,29,16.5,55.9,45.5,59.8c2.4,0.3,4.8,0.5,7.2,0.5c26.2,0,49-19.4,52.6-46
						c3.9-29-16.5-55.9-45.5-59.8C109.3,7.9,106.9,7.8,104.6,7.8z"/>
				</g>
				<g class="st3">
					<path class="st4" d="M158,60.7c0,2.4-0.1,4.9-0.5,7.4c-4,29.2-30.9,49.7-60.1,45.8c-29.2-4-49.7-30.9-45.8-60.1
						c0.1-0.8,0.2-1.7,0.4-2.5c0.1,26.3,19.5,49.1,46.3,52.7C126.7,107.8,152.9,88.6,158,60.7z"/>
				</g>
				<g>
					<path class="st4" d="M104.7,116.1c-2.5,0-5-0.2-7.5-0.5c-14.6-2-27.5-9.5-36.5-21.2C51.8,82.6,48,68.2,50,53.6
						c4.1-30.1,31.9-51.3,62-47.2c14.6,2,27.5,9.5,36.5,21.2c8.9,11.7,12.7,26.2,10.8,40.8c-2,14.6-9.5,27.5-21.2,36.5
						C128.3,112.2,116.7,116.1,104.7,116.1z M104.6,9.3C79.1,9.3,56.9,28.1,53.4,54c-1.9,13.7,1.7,27.3,10.1,38.3
						c8.4,11,20.5,18.1,34.2,19.9c2.3,0.3,4.7,0.5,7,0.5c25.5,0,47.7-18.9,51.2-44.8c3.8-28.2-16-54.3-44.3-58.2
						C109.2,9.4,106.9,9.3,104.6,9.3z"/>
				</g>
				<g>
					<path class="st4" d="M157.2,69.5c-1.2,10.4-5.8,19.6-12.5,26.9c-5,5.5-24,13.8-46,11.4c-20.4-2.3-37.5-15.3-41.2-21.8
						c-4.8-8.7-7-18.7-5.8-29.1c3.3-27.5,28.3-36,57.4-32.5S160.5,42,157.2,69.5z"/>
				</g>
				<g>
					<path class="st4" d="M106.8,109.6c-2.7,0-5.4-0.1-8.3-0.5c-21.1-2.3-38.4-15.7-42.2-22.5c-5.1-9.2-7.2-19.6-5.9-29.9
						c1.6-13.5,8.3-23.2,19.8-29c10-5,23.6-6.7,39.2-4.8c15.6,1.9,28.4,6.7,36.9,13.9c9.8,8.3,14,19.3,12.4,32.8l0,0
						c-1.2,10.3-5.7,19.9-12.9,27.7C141.4,102,126.2,109.6,106.8,109.6z M97.3,25c-10.1,0-18.9,1.8-25.9,5.2
						C60.8,35.5,54.7,44.5,53.2,57c-1.2,9.7,0.8,19.5,5.6,28.2c3.4,6.2,20.2,18.9,40.1,21.1c22,2.4,40.3-6,44.8-10.9
						c6.8-7.3,11-16.4,12.1-26.1c1.5-12.5-2.3-22.7-11.4-30.3c-8.1-6.9-20.4-11.5-35.4-13.3C104.9,25.2,101,25,97.3,25z M157.2,69.5
						L157.2,69.5L157.2,69.5z"/>
				</g>
				<g class="st1">
					
						<ellipse transform="matrix(0.2943 -0.9557 0.9557 0.2943 38.3028 179.2189)" class="st2" cx="140.5" cy="63.7" rx="9.5" ry="6.8"/>
				</g>
				<g class="st1">
					
						<ellipse transform="matrix(0.4235 -0.9059 0.9059 0.4235 1.2923 164.5599)" class="st2" cx="129.9" cy="81.3" rx="4.3" ry="3.7"/>
				</g>
				<g class="st3">
					<path class="st9" d="M150,42.6c5.7,6.9,8.5,15.8,7.2,26.9c-1.2,10.4-5.8,19.6-12.5,26.9c-5,5.5-24.1,13.8-46,11.4
						c-7.8-0.9-15-3.3-21.3-6.3c27,2.4,50.2-7.8,56.5-14.6c8.5-9.2,14.3-21,15.9-34.1C150.1,49.1,150.2,45.8,150,42.6z"/>
				</g>
				<g>
					<path class="st4" d="M155.5,46.3c-0.4,0-0.8-0.2-1.1-0.5l-0.2-0.2c-7.4-13.6-23.8-22.8-44.9-25.4C88.1,17.6,70,22.9,59.6,34.8
						l-0.1,0.1c-0.5,0.5-1.4,0.5-1.9,0c-0.6-0.5-0.6-1.4-0.1-2c0,0,0,0,0,0c11-12.6,30-18.2,52.2-15.6c22,2.6,39.2,12.4,47.1,26.8
						c0.4,0.6,0.3,1.4-0.3,1.9C156.2,46.2,155.9,46.3,155.5,46.3z"/>
				</g>
				<g class="st1">
					<path class="st2" d="M61.7,74.6c0,0-5.3-28.1,10.6-37.2c15.9-9,36.9-6.5,36.2-5.2c0,0-23.9,2.8-35.2,20.1
						C64.6,65.7,61.7,74.6,61.7,74.6z"/>
				</g>
			</g>
		</g>
		<g class="st3">
			<path class="st4" d="M118.6,165.2c5.1,2.1,12.9,1.6,18.2,1c1.5-0.2,2.9-1,3.8-2.1c-0.1-2.6-0.2-5.1-0.4-7.6
				c-1-1.1-2.5-1.7-4.1-1.7c-0.1,0-0.2,0-0.3,0c-5,0.2-12.5,0.3-17.2-0.7L118.6,165.2z"/>
		</g>
		<g class="st3">
			<path class="st4" d="M60.4,165.9c0.4,0.1,0.8,0.2,1.2,0.3c5.3,0.6,13.2,1.1,18.2-1l0-11.2c-4.7,1.1-12.2,0.9-17.2,0.7
				c-0.1,0-0.2,0-0.3,0c-0.5,0-0.9,0.1-1.4,0.2C60.6,158.6,60.4,162.3,60.4,165.9z"/>
		</g>
		<g>
			<path class="st2" d="M81.3,160.8c-5.1,2-12.9,1.6-18.2,1c-3.2-0.4-5.5-3.3-5-6.5l0,0c0.4-2.9,3-5,5.9-4.9
				c5,0.2,12.5,0.3,17.2-0.7"/>
		</g>
		<g class="st3">
			<path class="st4" d="M81.3,160.8c-5.1,2.1-12.9,1.6-18.2,1c-3.2-0.4-5.5-3.3-5-6.5c0.1-0.7,0.3-1.3,0.6-1.8
				c0.8,1.6,2.4,2.8,4.4,3c5.3,0.6,13.1,1.1,18.2-1L81.3,160.8z"/>
		</g>
		<g>
			<path class="st4" d="M71.2,163.9c-2.9,0-5.9-0.2-8.4-0.5c-2-0.2-3.7-1.2-4.9-2.8c-1.2-1.6-1.7-3.6-1.4-5.5
				c0.6-3.7,3.8-6.4,7.6-6.3c7.3,0.3,13.3,0.1,16.8-0.7c0.8-0.2,2.7-0.2,3.8,3.4c1.1,3.5,0.9,9.3-2.8,10.9l0,0
				C78.9,163.5,75.1,163.9,71.2,163.9z M63.8,151.9c-2,0-3.8,1.5-4.1,3.5c-0.2,1.1,0.1,2.2,0.8,3.1c0.7,0.9,1.7,1.5,2.8,1.6
				c7.6,0.9,13.8,0.6,17.4-0.9l0,0c0.9-0.4,1.2-1.8,1.3-2.4c0.4-2.3-0.3-4.8-0.8-5.6c-4.8,1-12,0.9-17.2,0.7
				C63.9,151.9,63.8,151.9,63.8,151.9z"/>
		</g>
		<g>
			<path class="st2" d="M120,160.8c5.1,2,12.9,1.6,18.2,1c3.2-0.4,5.5-3.3,5-6.5l0,0c-0.4-2.9-3-5-5.9-4.9c-5,0.2-12.5,0.3-17.2-0.7
				"/>
		</g>
		<g class="st3">
			<path class="st4" d="M138.2,161.8c-5.3,0.6-13.2,1.1-18.2-1l0-5.4c5.1,2,12.9,1.6,18.2,1c1.9-0.2,3.5-1.4,4.4-3
				c0.3,0.6,0.5,1.2,0.6,1.8C143.7,158.4,141.4,161.4,138.2,161.8z"/>
		</g>
		<g>
			<path class="st4" d="M130.1,163.9c-3.8,0-7.7-0.4-10.7-1.6c-3.8-1.5-3.9-7.4-2.8-10.9c1.1-3.5,3-3.5,3.8-3.4
				c3.5,0.8,9.5,1,16.8,0.7c3.8-0.2,7,2.5,7.6,6.3c0.3,2-0.2,3.9-1.4,5.5c-1.2,1.6-3,2.6-4.9,2.8C135.9,163.7,133,163.9,130.1,163.9
				z M120.1,151.3c-0.5,0.8-1.2,3.3-0.8,5.6c0.1,0.6,0.4,2,1.3,2.4l0,0c3.7,1.5,9.8,1.8,17.4,0.9c1.1-0.1,2.1-0.7,2.8-1.6
				c0.7-0.9,1-2,0.8-3.1c-0.3-2.1-2.1-3.6-4.3-3.5C132.1,152.2,125,152.3,120.1,151.3z"/>
		</g>
		<g>
			<path class="st2" d="M122,145.9v17.9c0,3.3-2.7,6-6,6H83c-3.3,0-6-2.7-6-6v-17.9c0-3.3,2.7-6,6-6h32.9c2,0,3.7,0.9,4.8,2.4
				C121.5,143.3,122,144.6,122,145.9z"/>
		</g>
		<g class="st3">
			<path class="st4" d="M122,145.9v17.9c0,3.3-2.7,6-6,6H83c-3.3,0-6-2.7-6-6v-6.7c6.9,5.1,21.9,8.6,31.2,1
				c7.4-6.1,10.9-12.1,12.5-15.8C121.5,143.3,122,144.6,122,145.9z"/>
		</g>
		<g>
			<path class="st4" d="M115.9,171.5H83c-4.2,0-7.6-3.4-7.6-7.6v-17.9c0-4.2,3.4-7.6,7.6-7.6h32.9c4.2,0,7.6,3.4,7.6,7.6v17.9
				C123.6,168,120.1,171.5,115.9,171.5z M83,141.5c-2.4,0-4.4,2-4.4,4.4v17.9c0,2.4,2,4.4,4.4,4.4h32.9c2.4,0,4.4-2,4.4-4.4v-17.9
				c0-2.4-2-4.4-4.4-4.4H83z"/>
		</g>
		<g>
			<circle class="st10" cx="111.1" cy="154.9" r="5.2"/>
		</g>
		<g class="st1">
			<path class="st2" d="M111.1,152.3c2.4,0,4.5,1.7,5,3.9c0.1-0.4,0.2-0.8,0.2-1.3c0-2.9-2.3-5.2-5.2-5.2c-2.9,0-5.2,2.3-5.2,5.2
				c0,0.4,0.1,0.9,0.2,1.3C106.7,153.9,108.7,152.3,111.1,152.3z"/>
		</g>
		<g class="st3">
			<path class="st6" d="M116.3,154.9c0,2.9-2.3,5.2-5.2,5.2c-2.9,0-5.2-2.3-5.2-5.2c0-0.7,0.1-1.3,0.4-1.9c0.7,1.9,2.6,3.3,4.8,3.3
				c2.2,0,4.1-1.4,4.8-3.3C116.2,153.6,116.3,154.2,116.3,154.9z"/>
		</g>
		<g>
			<path class="st4" d="M111.1,161.4c-3.6,0-6.5-2.9-6.5-6.5c0-3.6,2.9-6.5,6.5-6.5c3.6,0,6.5,2.9,6.5,6.5
				C117.6,158.5,114.7,161.4,111.1,161.4z M111.1,151c-2.2,0-3.9,1.8-3.9,3.9s1.8,3.9,3.9,3.9s3.9-1.8,3.9-3.9S113.3,151,111.1,151z
				"/>
		</g>
		<g>
			<path class="st4" d="M96.4,171.3c-0.8,0-1.5-0.7-1.5-1.5v-11.2c0-0.5-0.2-1-0.7-1.3l-4.1-3.1c-1.1-0.9-1.8-2.2-1.8-3.7v-10.7
				c0-0.8,0.7-1.5,1.5-1.5s1.5,0.7,1.5,1.5v10.7c0,0.5,0.2,1,0.7,1.3L96,155c1.1,0.9,1.8,2.2,1.8,3.7v11.2
				C97.9,170.7,97.2,171.3,96.4,171.3z"/>
		</g>
		<g>
			<path class="st4" d="M165.3,138.8c-0.4,0-0.9-0.2-1.2-0.5c-8.2-8.9-3.9-27-3.7-27.8c0.2-0.9,1.1-1.4,1.9-1.2
				c0.9,0.2,1.4,1.1,1.2,1.9c0,0.2-4.1,17.2,3,24.9c0.6,0.7,0.6,1.7-0.1,2.3C166.1,138.7,165.7,138.8,165.3,138.8z"/>
		</g>
		<g>
			<path class="st4" d="M30.7,116.9c-0.6,0-1.1-0.3-1.4-0.9c-0.4-0.8-0.1-1.8,0.7-2.2c10.9-5.6,12.4-21.5,12.5-21.7
				c0.1-0.9,0.9-1.5,1.7-1.5c0.9,0.1,1.5,0.9,1.5,1.7c-0.1,0.7-1.7,17.8-14.2,24.3C31.2,116.8,30.9,116.9,30.7,116.9z"/>
		</g>
		<g>
			<path class="st4" d="M122.5,207.2c-4.6,0-10.3-0.9-17.4-3.6c-0.8-0.3-1.2-1.2-0.9-2.1c0.3-0.8,1.2-1.2,2.1-0.9
				c20.2,7.7,28.5-0.1,28.6-0.2c0.6-0.6,1.7-0.6,2.3,0c0.6,0.6,0.6,1.7,0,2.3C136.9,203,132.4,207.2,122.5,207.2z"/>
		</g>
		<g>
			<path class="st4" d="M76,208.5c-4.1,0-8.2-1-11.5-3.7c-0.7-0.6-0.8-1.6-0.2-2.3c0.6-0.7,1.6-0.8,2.3-0.2
				c9.4,7.7,27.7-2.1,27.9-2.2c0.8-0.4,1.8-0.1,2.2,0.7c0.4,0.8,0.1,1.8-0.6,2.2C95.4,203.3,85.6,208.5,76,208.5z"/>
		</g>
		<g>
			<path class="st4" d="M116.5,182.7c-0.9,1.3-2.1,2.2-3.4,2.8c-1.3,0.7-2.6,1.3-4,1.7c-0.7,0.2-1.4,0.5-2.1,0.7l-1.1,0.3l-1.1,0.2
				c-1.4,0.3-2.9,0.5-4.3,0.6c-0.9,0.1-1.6-0.6-1.7-1.5c0-0.8,0.6-1.6,1.4-1.7l0.1,0c1.3-0.2,2.7-0.3,4-0.5c1.3-0.2,2.7-0.5,4-0.7
				c1.3-0.3,2.6-0.7,3.9-1.1c1.3-0.4,2.6-0.8,4.1-1l0,0C116.5,182.5,116.5,182.5,116.5,182.7C116.5,182.7,116.5,182.7,116.5,182.7z"
				/>
		</g>
		<g>
			<path class="st4" d="M84,182.5c1.5,0.2,2.8,0.5,4.1,1c1.3,0.4,2.6,0.8,3.9,1.1c1.3,0.3,2.6,0.6,4,0.7c1.3,0.2,2.7,0.3,4,0.5
				l0.1,0c0.9,0.1,1.5,0.9,1.4,1.8c-0.1,0.8-0.9,1.5-1.7,1.4c-1.5-0.1-2.9-0.3-4.3-0.6l-1.1-0.2l-1.1-0.3c-0.7-0.2-1.4-0.4-2.1-0.7
				c-1.4-0.5-2.7-1.1-4-1.7c-1.3-0.7-2.5-1.5-3.4-2.8c0-0.1,0-0.2,0-0.2C83.9,182.5,84,182.5,84,182.5L84,182.5z"/>
		</g>
		<g>
			<path class="st11" d="M192.8,11.3l-12.2,93l-3.1,23.3L163,237.8c-0.3,2.1-2.2,3.6-4.4,3.3c-2.1-0.3-3.6-2.2-3.3-4.4L170,125.3
				l3-22.6l12.2-92.4c0.3-2,1.9-3.4,3.8-3.4c0.2,0,0.3,0,0.5,0C191.6,7.3,193.1,9.2,192.8,11.3z"/>
		</g>
		<g class="st3">
			<path class="st4" d="M180.6,104.4l-3.1,23.3L163,237.8c-0.3,2.1-2.2,3.6-4.4,3.3c-2.1-0.3-3.6-2.2-3.3-4.4l1-7.6
				c0.2,0.1,0.4,0.1,0.5,0.1c2.1,0.3,4.1-1.2,4.4-3.3l12.6-95.5c0.2-1.4-0.5-2.7-1.8-3.4c0,0,0,0,0,0c-0.8-0.4-1.4-1-2-1.7l3-22.6
				c0.9-0.4,1.8-0.5,2.6-0.5c0.7,0,1.4,0.1,2,0.3C178.8,102.8,179.8,103.5,180.6,104.4z"/>
		</g>
		<g class="st3">
			<path class="st4" d="M192.8,11.3l-12.2,93c-0.8-0.9-1.8-1.6-3.1-2L190,7.1C191.9,7.6,193.1,9.4,192.8,11.3z"/>
		</g>
		<g>
			<path class="st4" d="M159.2,242.8c-0.2,0-0.5,0-0.7,0h0c-3-0.4-5.1-3.2-4.7-6.2l29.8-226.5c0.4-3,3.2-5.1,6.2-4.7
				c3,0.4,5.1,3.2,4.7,6.2L164.6,238c-0.2,1.5-0.9,2.7-2.1,3.6C161.5,242.4,160.4,242.8,159.2,242.8z M158.9,239.6
				c0.6,0.1,1.2-0.1,1.7-0.5c0.5-0.4,0.8-0.9,0.9-1.5l29.8-226.5c0.2-1.2-0.7-2.4-2-2.5c-1.2-0.2-2.4,0.7-2.5,2L156.9,237
				C156.8,238.3,157.6,239.4,158.9,239.6L158.9,239.6z"/>
		</g>
		<g>
			<path class="st2" d="M171.4,111.1c0,0-1.7,3.1-4.4,1.1c-2.3-1.8-2.2-10.1,0-12.2c2.2-2,7,0.7,7,0.7L171.4,111.1z"/>
		</g>
		<g class="st3">
			<path class="st4" d="M165.5,108.4c0.2,1.6,0.8,3,1.6,3.7c2.6,2.1,4.4-1.1,4.4-1.1l2.6-10.4c0,0-1.4-0.8-3-1.2l-1.9,7.5
				C169.2,106.9,167.7,109.5,165.5,108.4z"/>
		</g>
		<g>
			<path class="st4" d="M168.8,114.4c-0.8,0-1.8-0.2-2.8-1.1c-1.9-1.5-2.3-4.8-2.3-6.6c-0.1-2.8,0.5-6.4,2.2-8
				c3-2.7,8.3,0.2,8.9,0.5l1.1,0.6l-3,11.8l-0.1,0.2c-0.1,0.2-1.2,2.1-3.3,2.5C169.4,114.4,169.1,114.4,168.8,114.4z M169.2,100.8
				c-0.5,0-0.9,0.1-1.1,0.3c-0.6,0.6-1.3,2.8-1.2,5.5c0.1,2.5,0.7,3.9,1.1,4.2c0.4,0.3,0.7,0.4,0.9,0.4c0.4-0.1,0.8-0.5,1-0.8
				l2.2-8.9C171.3,101.2,170.1,100.8,169.2,100.8z M171.4,111.1L171.4,111.1L171.4,111.1z"/>
		</g>
		<g>
			<path class="st2" d="M180.4,98.3c-2.6,0-6.2,1.9-7.8,7c-1.6,5.2-0.8,15.1,4.3,17.9c3.9,2.1,7.9,0.6,9.9-3.2
				C188.5,116.5,190.7,98.3,180.4,98.3z"/>
		</g>
		<g class="st3">
			<path class="st4" d="M187.7,116.8c-0.3,1.4-0.6,2.5-0.9,3.2c-1.9,3.7-6,5.3-9.9,3.2c-5.1-2.8-5.9-12.6-4.3-17.9
				c0.5-1.6,1.2-2.8,2-3.8c-1.2,5.4-0.1,14.1,4.6,16.7C182.3,119.8,185.5,119.1,187.7,116.8z"/>
		</g>
		<g>
			<path class="st4" d="M183.1,125.1c-0.6,0-1.2-0.4-1.5-1c-0.4-0.8,0-1.8,0.8-2.1c1.2-0.5,2.2-1.5,2.9-2.8
				c1.1-2.2,2.5-11.9-0.4-16.8c-1-1.7-2.5-2.6-4.5-2.6c-2.2,0-5,1.8-6.3,5.8c-1.4,4.5-0.7,12.1,2.4,15.1c0.6,0.6,0.6,1.6,0,2.3
				c-0.6,0.6-1.6,0.6-2.3,0c-4.4-4.3-4.7-13.6-3.2-18.4c1.9-6,6.2-8.1,9.4-8.1c3.1,0,5.6,1.4,7.3,4.1c3.6,5.9,2.1,16.9,0.5,19.9
				c-1,2-2.6,3.4-4.4,4.3C183.5,125.1,183.3,125.1,183.1,125.1z"/>
		</g>
	</g>
</g>
</svg>
